<?xml version="1.0" encoding="UTF-8" standalone="no"?>
<!-- Created with Inkscape (http://www.inkscape.org/) -->

<svg
   xmlns:dc="http://purl.org/dc/elements/1.1/"
   xmlns:cc="http://creativecommons.org/ns#"
   xmlns:rdf="http://www.w3.org/1999/02/22-rdf-syntax-ns#"
   xmlns:svg="http://www.w3.org/2000/svg"
   xmlns="http://www.w3.org/2000/svg"
   xmlns:xlink="http://www.w3.org/1999/xlink"
   xmlns:sodipodi="http://sodipodi.sourceforge.net/DTD/sodipodi-0.dtd"
   xmlns:inkscape="http://www.inkscape.org/namespaces/inkscape"
   width="207.11"
   height="53.66"
   id="svg2"
   version="1.1"
   inkscape:version="0.48+devel r"
   sodipodi:docname="title.svg"
   inkscape:export-filename="title.png"
   inkscape:export-xdpi="108.63792"
   inkscape:export-ydpi="108.63792">
  <defs
     id="defs4">
    <filter
       inkscape:collect="always"
       id="filter864"
       x="-0.23042651"
       width="1.460853"
       y="-0.13367997"
       height="1.2673599"
       color-interpolation-filters="sRGB">
      <feGaussianBlur
         inkscape:collect="always"
         stdDeviation="3.2232277"
         id="feGaussianBlur866" />
    </filter>
  </defs>
  <sodipodi:namedview
     id="base"
     pagecolor="#51c577"
     bordercolor="#666666"
     borderopacity="1.0"
     inkscape:pageopacity="0"
     inkscape:pageshadow="2"
     inkscape:zoom="1.979899"
     inkscape:cx="14.626759"
     inkscape:cy="-71.40974"
     inkscape:document-units="px"
     inkscape:current-layer="layer1"
     showgrid="false"
     showborder="true"
     borderlayer="true"
     inkscape:window-width="1215"
     inkscape:window-height="1000"
     inkscape:window-x="1431"
     inkscape:window-y="24"
     inkscape:window-maximized="1"
     inkscape:snap-global="false"
     fit-margin-top="0"
     fit-margin-left="0"
     fit-margin-right="0"
     fit-margin-bottom="0" />
  <metadata
     id="metadata7">
    <rdf:RDF>
      <cc:Work
         rdf:about="">
        <dc:format>image/svg+xml</dc:format>
        <dc:type
           rdf:resource="http://purl.org/dc/dcmitype/StillImage" />
        <dc:title />
      </cc:Work>
    </rdf:RDF>
  </metadata>
  <g
     inkscape:groupmode="layer"
     id="layer2"
     inkscape:label="bg"
     sodipodi:insensitive="true">
    <rect
       style="color:#000000;fill:#000000;fill-opacity:1;fill-rule:nonzero;stroke:#ffffff;stroke-width:11.12300014000000026;stroke-linecap:square;stroke-linejoin:round;stroke-miterlimit:4;stroke-opacity:1;stroke-dasharray:none;stroke-dashoffset:0;marker:none;visibility:visible;display:inline;overflow:visible;enable-background:accumulate"
       id="rect2989"
       width="430.71429"
       height="300"
       x="-141.42857"
       y="-139.91142"
       rx="5.2145171"
       ry="7.74085" />
  </g>
  <g
     inkscape:label="Capa 1"
     inkscape:groupmode="layer"
     id="layer1"
     transform="translate(0.66431808,-999.6792)">
    <text
       xml:space="preserve"
       style="font-style:normal;font-weight:normal;font-size:20.5458107px;line-height:100%;font-family:Andale Mono;-inkscape-font-specification:Andale Mono;text-align:start;letter-spacing:0px;word-spacing:0px;text-anchor:start;fill:#ffffff;fill-opacity:1;stroke:none"
       x="43.610382"
       y="1022.0645"
       id="text810"
       sodipodi:linespacing="100%"><tspan
         sodipodi:role="line"
         id="tspan812"
         x="43.610382"
         y="1022.0645"
         style="font-style:normal;font-variant:normal;font-weight:normal;font-stretch:normal;font-size:23.46589661px;line-height:100%;font-family:Josefin Sans;-inkscape-font-specification:Josefin Sans;text-align:start;text-anchor:start">Adventure</tspan><tspan
         sodipodi:role="line"
         x="43.610382"
         y="1050.3795"
         id="tspan814"
         style="font-style:normal;font-variant:normal;font-weight:normal;font-stretch:normal;font-size:28.15907669px;line-height:100%;font-family:Paytone One;-inkscape-font-specification:Paytone One;text-align:start;text-anchor:start">COMPOSER</tspan></text>
    <path
       style="color:#000000;fill:#ffffff;fill-opacity:0.36942677;fill-rule:nonzero;stroke:none;stroke-width:3;marker:none;visibility:visible;display:inline;overflow:visible;filter:url(#filter864);enable-background:accumulate"
       d="m 11.357143,993.07648 c 0,1.78572 -7.857143,51.78572 -7.857143,51.78572 6.747884,7.3737 23.941702,9.3174 33.571428,-1.4285 L 26.714286,994.14791 z"
       id="path846"
       inkscape:connector-curvature="0"
       sodipodi:nodetypes="ccccc"
       transform="matrix(0.88357343,0,0,0.88357343,-31.209633,25.417721)" />
    <image
       sodipodi:absref="/home/rgarcia/Dropbox/art/2013.Proyecto Indiana/diosa/assets/sprites/player/walk.left_18.png"
       y="909.67657"
       x="-27.681541"
       id="image824"
       xlink:href="file:///home/rgarcia/Dropbox/art/2013.Proyecto%20Indiana/diosa/assets/sprites/player/walk.left_18.png"
       height="48.651417"
       width="31.888103" />
    <path
       style="fill:#ffffff"
       d="m 25.898014,1051.628 c -0.282985,0 -0.522463,-0.1464 -0.721591,-0.2267 -0.374987,-0.3379 -0.153711,-0.1662 0.249091,-0.3194 -0.22906,0.039 0.05321,0.022 0.29488,-0.1334 0.08414,0 0.248295,-0.041 0.364811,-0.091 0.116512,-0.05 0.25066,-0.1005 0.298112,-0.1116 0.04745,-0.011 0.261073,-0.087 0.474721,-0.1677 0.213644,-0.081 0.488334,-0.1843 0.610414,-0.2295 0.208491,-0.077 0.58733,-0.2702 1.021905,-0.5209 0.18785,-0.1084 0.295669,-0.1879 0.517306,-0.3811 0.06314,-0.055 0.140117,-0.1002 0.171052,-0.1002 0.03094,0 0.04264,-0.014 0.02602,-0.031 -0.01664,-0.017 0.0666,-0.135 0.184975,-0.2621 0.118369,-0.127 0.214389,-0.2611 0.213371,-0.2979 -0.0055,-0.2004 -0.395497,-0.4641 -1.773913,-1.1995 -0.350992,-0.1872 -0.687422,-0.3759 -0.747625,-0.4193 -0.0602,-0.044 -0.151765,-0.079 -0.203472,-0.079 -0.05171,0 -0.102339,-0.021 -0.112511,-0.045 -2.070039,-0.9916 -3.395082,-1.6949 -5.405571,-2.5308 -0.02141,0 -0.157863,-0.075 -0.303238,-0.1677 -0.376758,-0.2151 -0.578571,-0.2624 -0.913298,-0.5325 -0.03052,-0.025 -0.150658,-0.1205 -0.266968,-0.2126 -0.467542,-0.3704 -0.63933,-0.7331 -0.576385,-1.217 0.01791,-0.1377 0.342048,-0.8781 0.786859,-1.7973 0.416024,-0.8597 0.752866,-1.5804 0.748539,-1.6014 -0.0043,-0.021 0.0152,-0.054 0.04341,-0.073 0.09794,-0.067 1.011814,-2.0215 0.975646,-2.0867 -0.02001,-0.036 -0.01615,-0.046 0.0086,-0.024 0.04489,0.042 0.539351,-0.8937 0.543882,-1.0291 0.0015,-0.039 0.02737,-0.071 0.05789,-0.071 0.03052,0 0.04116,-0.015 0.02365,-0.033 -0.04012,-0.041 -0.375108,0.134 -0.375108,0.1964 0,0.026 -0.03492,0.046 -0.0776,0.046 -1.767277,0.7112 -3.753698,1.8065 -5.309941,2.5356 -0.414656,0.1949 -0.816965,0.4101 -0.89402,0.4783 -0.08266,0.073 -0.202373,0.3057 -0.291975,0.567 -0.08354,0.2435 -0.198566,0.504 -0.255633,0.5789 -0.05707,0.074 -0.09164,0.1485 -0.07683,0.1637 0.01483,0.015 -0.245429,0.5789 -0.578319,1.2524 -0.812599,1.644 -0.858709,1.733 -0.922805,1.7815 -0.03052,0.023 -0.03289,0.043 -0.0053,0.043 0.02763,0 0.01384,0.046 -0.03063,0.101 -0.04446,0.055 -0.151155,0.2546 -0.237093,0.4434 -0.08594,0.1889 -0.220276,0.4315 -0.298528,0.5392 -0.07825,0.1076 -0.106529,0.1735 -0.06284,0.1464 0.06809,-0.042 0.06848,-0.036 0.0026,0.048 -0.841707,1.6961 -1.899721,3.2744 -2.622598,5.0012 -0.218085,0.4009 -0.348209,0.7779 -0.5413351,1.2752 l 0.2607561,0 c 0.878036,0.1076 -0.140681,0.2154 -0.4328991,0.2483 -1.05987,0.1179 -5.123415,0.038 -5.260809,-0.1042 -0.139263,-0.1437 0.53987,-0.208 2.333447,-0.2211 0.724799,-0.01 1.317874,-0.012 1.317946,-0.016 5.8e-5,0 -0.152129,-0.1292 -0.338232,-0.28 -0.1861,-0.1508 -0.392115,-0.3291 -0.457813,-0.3961 -0.0657,-0.067 -0.198127,-0.1729 -0.294294,-0.2351 -0.09617,-0.062 -0.333395,-0.2488 -0.527178,-0.4148 -0.193783,-0.1661 -0.384473,-0.3289 -0.423756,-0.3619 -0.03928,-0.033 -0.226572,-0.1906 -0.416193,-0.3501 -0.400096,-0.3366 -0.784733,-0.7511 -0.900879,-0.971 -0.07619,-0.1442 -0.07354,-0.1563 0.04324,-0.1969 0.199618,-0.069 0.435494,-0.01 1.176981,0.3128 0.121095,0.052 0.233468,0.097 0.249715,0.1 0.03696,0.01 0.201338,0.072 0.417992,0.1656 0.09156,0.039 0.291335,0.1188 0.44394,0.1755 0.152606,0.057 0.302436,0.1206 0.332957,0.1424 0.06756,0.048 0.372647,0.1348 0.429452,0.1221 0.02256,-0.01 0.134928,0.028 0.249718,0.073 0.380449,0.1501 1.007771,0.2049 1.555852,0.1361 0.4853561,-0.3835 0.8276681,-0.9888 1.0390371,-1.4777 0.05524,-0.063 0.07784,-0.1148 0.05022,-0.1153 -0.02763,0 -0.02244,-0.02 0.01151,-0.043 0.325779,-0.65 0.682061,-1.3717 0.9619,-1.9877 0.345945,-0.7467 0.51962,-1.1442 0.535094,-1.2245 0.0085,-0.045 0.0483,-0.1017 0.08848,-0.1279 0.04018,-0.027 0.05382,-0.048 0.03031,-0.048 -0.02351,0 0.0049,-0.097 0.06318,-0.2155 0.05826,-0.118 0.137636,-0.3241 0.176389,-0.4578 0.03875,-0.1338 0.08732,-0.2432 0.10792,-0.2432 0.02059,0 0.03777,-0.032 0.03815,-0.071 2.9e-4,-0.039 0.119544,-0.3806 0.264812,-0.7582 0.299433,-0.7785 0.595272,-1.5682 0.761049,-2.0316 0.06194,-0.173 0.133818,-0.3662 0.159731,-0.4291 0.0259,-0.063 0.100648,-0.2561 0.166085,-0.4291 0.06544,-0.1732 0.168007,-0.4307 0.227931,-0.5723 0.05993,-0.1417 0.112456,-0.2833 0.116736,-0.3149 0.0043,-0.031 0.02826,-0.083 0.05329,-0.1144 0.952922,-1.4376 2.637354,-2.423 3.808719,-3.4959 0.02573,0.016 0.194288,-0.1045 0.374573,-0.2684 0.180286,-0.1641 0.352766,-0.3179 0.383288,-0.3419 0.160225,-0.1256 0.838135,-0.6858 1.193828,-0.9866 0.223373,-0.1888 0.533088,-0.4437 0.688254,-0.5664 0.15517,-0.1227 0.294612,-0.2399 0.309872,-0.2603 0.01526,-0.021 0.190049,-0.1645 0.388421,-0.3204 0.198373,-0.1559 0.40157,-0.3256 0.451552,-0.3772 0.422696,-0.4779 1.082718,-0.8486 1.906911,-1.5561 0.06104,-0.059 0.166956,-0.1463 0.235364,-0.1937 0.06841,-0.047 0.110254,-0.1097 0.09299,-0.1385 -0.01728,-0.029 -0.0076,-0.045 0.02154,-0.037 0.08301,0.025 0.406232,-0.2411 0.368927,-0.3034 0.182585,-0.095 0.351145,-0.2502 0.552761,-0.4237 0.109443,-0.1097 0.198987,-0.1851 0.198987,-0.1677 0,0.018 0.03218,0 0.07151,-0.044 0.09147,-0.097 0.297516,-0.5961 0.338109,-0.8196 0.01717,-0.094 0.0685,-0.3258 0.11408,-0.5144 0.148766,-0.6151 0.245195,-1.6912 0.27953,-3.1193 0.01854,-0.7711 0.04658,-1.5307 0.06229,-1.6881 l 0.02858,-0.2862 -0.368182,0.4006 c -0.346198,0.3767 -0.562398,0.692 -0.538009,0.7848 0.0059,0.022 -0.02449,0.027 -0.06757,0.01 -0.135795,0.034 -0.174159,0.1415 -0.247742,0.2642 -0.01831,0.015 -0.07077,0.079 -0.116549,0.1396 -0.06565,0.088 -0.06677,0.101 -0.0053,0.063 0.0529,-0.033 0.06522,-0.027 0.03835,0.018 -0.02177,0.037 -0.06533,0.066 -0.0968,0.066 -0.07601,0 -0.379739,0.2979 -0.351606,0.3447 0.01211,0.021 -0.01324,0.037 -0.05633,0.037 -0.04309,0 -0.06268,-0.028 -0.04352,-0.063 0.01919,-0.034 -0.01315,-0.02 -0.0718,0.031 -0.05865,0.051 -0.168861,0.113 -0.244899,0.1369 -0.07604,0.024 -0.28829,0.1147 -0.471685,0.2014 -0.183392,0.087 -0.695529,0.3166 -1.138081,0.5107 -0.442552,0.1941 -0.941986,0.4137 -1.109851,0.488 -0.167865,0.075 -0.441188,0.1901 -0.607387,0.2573 -0.166198,0.067 -0.653145,0.2834 -1.082104,0.4808 -0.428959,0.1974 -0.885376,0.4053 -1.014258,0.4622 -0.128882,0.057 -0.220668,0.1262 -0.203971,0.154 0.0167,0.028 0.0098,0.047 -0.01537,0.043 -0.129113,-0.023 -0.191799,0.024 -0.291441,0.2199 -0.155299,0.3051 -0.50666,0.6599 -0.893302,0.9021 -0.192376,0.1206 -0.317142,0.2345 -0.295807,0.2701 0.02077,0.034 0.0111,0.045 -0.02212,0.024 -0.03246,-0.021 -0.19239,0 -0.355402,0.041 -0.261508,0.07 -0.302193,0.069 -0.345766,-0.01 -0.03067,-0.055 -0.02524,-0.1279 0.01433,-0.1932 0.07645,-0.1263 0.05839,-0.1288 -0.181217,-0.026 -0.214799,0.092 -0.281877,0.063 -0.362777,-0.1557 -0.03721,-0.1009 -0.03849,-0.1464 -0.0035,-0.1242 0.03043,0.02 0.05532,0.01 0.05532,-0.021 0,-0.031 -0.05618,-0.064 -0.124856,-0.075 -0.163238,-0.024 -0.211126,-0.3094 -0.05872,-0.3501 0.09203,-0.025 0.0923,-0.028 0.0033,-0.034 -0.06984,-0.01 -0.09711,-0.056 -0.09711,-0.181 0,-0.137 0.03363,-0.1893 0.156539,-0.2432 0.0861,-0.038 0.238444,-0.1653 0.338546,-0.2832 0.100104,-0.1179 0.200882,-0.2023 0.22395,-0.1877 0.02307,0.014 0.214086,-0.026 0.424477,-0.089 0.243075,-0.074 0.514027,-0.112 0.743232,-0.1048 0.732525,0.022 0.801799,0.013 1.220836,-0.1873 0.228907,-0.1089 0.57851,-0.2691 0.776897,-0.356 1.052137,-0.4607 1.418839,-0.6341 1.454353,-0.6881 0.0216,-0.033 0.0718,-0.06 0.11153,-0.061 0.153531,0 0.870695,-0.3346 0.837723,-0.3897 -0.01901,-0.032 -0.0076,-0.04 0.02532,-0.02 0.535739,-0.1846 0.888631,-0.3613 1.390031,-0.5888 0.713838,-0.2901 0.989223,-0.4542 1.129587,-0.6729 0.07699,-0.1201 0.146499,-0.2439 0.154472,-0.2754 0.008,-0.031 0.05877,-0.1216 0.112885,-0.2003 0.445204,-0.8138 0.871915,-1.5229 1.280636,-2.2874 0.682152,-1.239 0.777595,-1.4758 0.884724,-2.1955 0.129987,-0.8732 0.18616,-1.1416 0.37128,-1.7743 l 0.148097,-0.5061 -0.224997,-0.2092 c -0.737422,-0.6856 -0.918005,-0.8086 -1.219339,-0.8301 -0.06576,-0.01 -0.107983,-0.028 -0.09384,-0.051 0.04528,-0.076 -0.387599,-0.045 -0.674483,0.048 -0.382177,0.1234 -0.572735,0.1528 -0.729439,0.1123 -0.147238,-0.038 -0.500736,-0.3967 -0.550525,-0.5585 -0.01736,-0.056 -0.05488,-0.1026 -0.08335,-0.1026 -0.02847,0 -0.05175,-0.046 -0.05175,-0.1022 0,-0.056 -0.07641,-0.1486 -0.169787,-0.2054 -0.211008,-0.1286 -0.290375,-0.3336 -0.245484,-0.6341 0.03406,-0.2279 0.213896,-1.2697 0.277023,-1.6049 0.140703,-0.7467 0.152724,-0.8858 0.08393,-0.9713 -0.03864,-0.048 -0.09323,-0.087 -0.121295,-0.087 -0.02807,0 -0.08121,-0.026 -0.118063,-0.057 -0.03687,-0.032 -0.124443,-0.1024 -0.194619,-0.1575 -0.07018,-0.056 -0.151701,-0.2031 -0.181156,-0.3289 -0.11315,-0.4837 -0.146601,-0.7117 -0.100035,-0.682 0.02645,0.017 0.04808,0 0.04808,-0.029 0,-0.1081 0.3585,-0.5644 0.471689,-0.6005 0.266651,-0.085 1.371627,-0.2052 1.884742,-0.2052 0.571845,0 0.716905,0.045 0.903893,0.2835 0.06022,0.077 0.06522,0.073 0.03743,-0.026 -0.03208,-0.1145 -0.03208,-0.1145 0.03721,0 0.03811,0.063 0.119633,0.1515 0.181171,0.1968 0.144625,0.1064 0.246801,0.2178 0.451586,0.492 0.09156,0.1227 0.214135,0.2731 0.272382,0.3342 0.100709,0.1055 0.102726,0.1519 0.04107,0.946 -0.07894,1.0166 -0.07858,1.6661 0.0011,2.0081 0.03298,0.1416 0.06311,0.3991 0.06695,0.5723 0.0064,0.29 0.02552,0.3338 0.243142,0.5579 0.129892,0.1338 0.249377,0.2432 0.265523,0.2432 0.753037,0.7563 1.983813,1.624 2.356991,2.5056 0.252945,0.4735 0.533646,1.0375 0.691644,1.5147 0.06648,0.2127 0.131411,0.3762 0.144281,0.3635 0.01286,-0.012 0.03013,0.1572 0.03835,0.3775 0.0082,0.2203 0.03698,0.4431 0.0639,0.495 0.115052,0.2216 0.604035,0.8019 0.644194,0.7645 0.02414,-0.022 0.02685,-0.01 0.006,0.028 -0.02097,0.038 0.04305,0.1653 0.143615,0.286 0.572218,0.5542 0.434023,0.5612 0.884614,0.9561 0.03999,-0.026 0.04808,-0.015 0.02191,0.029 -0.02619,0.044 0.139107,0.2582 0.449238,0.5829 0.269864,0.2827 0.50831,0.5581 0.529881,0.6121 0.05103,0.1278 0.247491,1.1066 0.599819,2.9882 0.156179,0.834 0.372878,1.9284 0.481551,2.432 0.108672,0.5036 0.209689,0.973 0.224479,1.0429 0.02772,0.1311 0.104751,0.2235 0.514236,0.6166 0.131143,0.1259 0.28573,0.3319 0.343527,0.4578 0.05779,0.1259 0.157771,0.319 0.222165,0.4292 0.09458,0.1618 0.118094,0.2993 0.122369,0.7153 0.0051,0.4995 0.0015,0.5149 -0.119569,0.5082 -0.111156,-0.01 -0.124859,0.02 -0.124859,0.2392 0,0.2847 -0.194903,0.6485 -0.349478,0.6522 -0.145997,0 -0.357459,-0.258 -0.575031,-0.7113 -0.228625,-0.4763 -0.21841,-0.464 -0.315698,-0.3807 -0.10348,0.089 -0.238836,0.029 -0.282704,-0.1256 -0.01956,-0.068 -0.05067,-0.3768 -0.06915,-0.6847 -0.0272,-0.4537 -0.01401,-0.6267 0.06935,-0.9107 l 0.102942,-0.3506 -0.147895,-0.7501 c -0.08134,-0.4126 -0.299534,-1.3935 -0.48487,-2.1796 -0.185335,-0.7861 -0.391118,-1.661 -0.457291,-1.9443 -0.06617,-0.2833 -0.140494,-0.5237 -0.16516,-0.5343 -0.02466,-0.01 -0.0338,-0.037 -0.0203,-0.06 0.04829,-0.081 -0.185471,-1.0059 -0.270273,-1.0697 -0.0476,-0.036 -0.0871,-0.088 -0.08779,-0.1162 -5.78e-4,-0.028 -0.139627,-0.2055 -0.308738,-0.3943 -0.169112,-0.1889 -0.376484,-0.4206 -0.460828,-0.5151 -0.345119,-0.3863 -0.794293,-0.7721 -0.856293,-0.7356 -0.03597,0.021 -0.04732,0.018 -0.0252,-0.01 0.03744,-0.043 -0.273855,-0.3703 -0.353818,-0.3722 -0.05126,0 -0.08957,0.4221 -0.214761,2.3739 -0.14855,2.316 -0.246239,3.2858 -0.466889,4.6351 -0.108021,0.6607 -0.426819,1.8494 -0.588553,2.1947 -0.05968,0.1274 -0.115955,0.2819 -0.125058,0.3434 -0.0091,0.062 -0.04364,0.1465 -0.07675,0.189 -0.193428,0.7649 -0.548695,0.9109 -0.818442,1.6004 0.02503,0.042 0.01719,0.053 -0.02033,0.029 -0.03671,-0.023 -0.178784,0.1502 -0.355402,0.4344 -0.161838,0.2604 -0.375212,0.5894 -0.474164,0.7311 -0.09895,0.1417 -0.270669,0.3993 -0.381591,0.5724 -0.110925,0.1732 -0.360839,0.5392 -0.555363,0.8135 -0.194528,0.2742 -0.353684,0.5268 -0.353684,0.5613 0,0.034 -0.02094,0.049 -0.04654,0.033 -0.02561,-0.016 -0.09943,0.066 -0.164082,0.1827 -0.06465,0.1167 -0.205234,0.3126 -0.312415,0.4352 -0.107182,0.1226 -0.179173,0.2514 -0.159978,0.2861 0.0192,0.035 0.01474,0.044 -0.0099,0.02 -0.02463,-0.022 -0.172215,0.1338 -0.327978,0.3482 -0.440047,0.6058 -1.218889,1.5922 -1.746245,2.2117 -0.08043,0.095 -0.344617,0.4098 -0.587076,0.7009 -0.242457,0.2911 -0.460959,0.5293 -0.485559,0.5293 -0.0246,0 -0.04472,0.029 -0.04472,0.064 0,0.036 -0.05627,0.1194 -0.125035,0.1859 -0.06876,0.066 -0.196166,0.2111 -0.283103,0.3213 -0.08694,0.1101 -0.139185,0.1641 -0.116108,0.12 0.02777,-0.053 0.0203,-0.067 -0.02212,-0.039 -0.03524,0.022 -0.06407,0.072 -0.06407,0.1111 0,0.039 -0.236464,0.3269 -0.525477,0.6404 -0.289013,0.3135 -0.526244,0.6004 -0.527179,0.6375 -8.29e-4,0.038 -0.08024,0.1308 -0.176219,0.2082 l -0.174514,0.1409 0.188388,0.041 c 0.319285,0.07 0.852109,0.271 0.89507,0.3375 0.02241,0.035 0.04115,0.04 0.04162,0.013 5.77e-4,-0.027 0.03575,-0.021 0.07843,0.016 0.04267,0.037 0.124824,0.075 0.182573,0.087 0.05775,0.012 0.236784,0.1011 0.397861,0.199 0.161076,0.098 0.278101,0.1534 0.260054,0.1233 -0.04043,-0.068 0.483671,0.2266 0.530946,0.2979 0.01866,0.028 0.05056,0.047 0.07085,0.043 2.093964,0.9231 3.377822,2.0524 5.222486,3.0043 0.122084,0.063 0.234453,0.1291 0.249714,0.1486 0.01526,0.02 0.157284,0.1051 0.315609,0.1901 0.158321,0.085 0.317451,0.1913 0.353622,0.2362 0.03616,0.045 0.09711,0.081 0.135412,0.081 0.03831,0 0.100507,0.038 0.138225,0.085 0.03772,0.046 0.0881,0.072 0.111963,0.057 0.02388,-0.015 0.05832,0.013 0.07656,0.062 0.01825,0.049 0.05662,0.074 0.08527,0.056 0.06129,-0.039 0.9008,0.8235 0.862957,0.8865 -0.01416,0.024 0.0054,0.056 0.04329,0.072 0.03798,0.015 0.117754,0.1277 0.177283,0.2491 0.05953,0.1215 0.144558,0.266 0.188953,0.3211 0.0444,0.055 0.06265,0.1001 0.04059,0.1001 -0.02207,0 0.0065,0.071 0.06347,0.1574 0.283405,0.4305 0.305848,0.6998 0.07259,0.8711 -0.17946,0.1318 -0.631355,0.305 -0.959394,0.3676 -0.114453,0.021 -0.208095,0.069 -0.208095,0.1039 0,0.035 0.01644,0.047 0.03651,0.026 0.02007,-0.021 0.07144,-0.01 0.114118,0.029 0.04268,0.037 0.07324,0.043 0.0679,0.014 -0.02423,-0.1314 0.01021,-0.1512 0.08563,-0.049 0.06628,0.09 0.09178,0.096 0.131792,0.033 0.02957,-0.046 0.06318,-0.055 0.08321,-0.021 0.01849,0.031 0.142207,0.058 0.274961,0.061 0.266568,0.01 0.537703,0.093 0.537703,0.1728 0,0.1921 -0.365848,0.2418 -1.927591,0.2619 -0.670667,0.01 -1.24626,0.033 -1.279095,0.054 -0.03284,0.021 -0.07614,0.011 -0.09622,-0.022 -0.02519,-0.042 -0.06216,-0.039 -0.11905,0.01 -0.04917,0.042 -0.09764,0.049 -0.119919,0.017 -0.839669,0.069 -1.411788,-0.041 -2.273703,-0.089 z"
       id="path3004"
       inkscape:connector-curvature="0"
       sodipodi:nodetypes="ccccccscscscccccsccccccscccccscsccccccsccccccccccccccccccccccccccccccccccccccsscsccsccccsccscscccccccsccssscsccccccscsccccsccsccccsccccccccscccscsccscccccccccccsscccccccssccscsccscscsscccscscscccccsscccccscsscsccscscscccccsssccccsccccsscccccccccscccccccsssccccscccccccccscccccscscccccccsscccsccccsccssccccc" />
  </g>
</svg>
