<?xml version="1.0" encoding="UTF-8" standalone="no"?>
<!-- Created with Inkscape (http://www.inkscape.org/) -->

<svg
   xmlns:dc="http://purl.org/dc/elements/1.1/"
   xmlns:cc="http://creativecommons.org/ns#"
   xmlns:rdf="http://www.w3.org/1999/02/22-rdf-syntax-ns#"
   xmlns:svg="http://www.w3.org/2000/svg"
   xmlns="http://www.w3.org/2000/svg"
   xmlns:sodipodi="http://sodipodi.sourceforge.net/DTD/sodipodi-0.dtd"
   xmlns:inkscape="http://www.inkscape.org/namespaces/inkscape"
   width="1536"
   height="2008"
   id="svg2"
   version="1.1"
   inkscape:version="0.92+devel unknown"
   sodipodi:docname="ios-default-images.svg"
   inkscape:export-filename="/home/rgarcia/Dropbox/prj/2013.Proyecto Indiana/editor/project_tmpl/assets/icons/icon128.png"
   inkscape:export-xdpi="15.481997"
   inkscape:export-ydpi="15.481997"
   viewBox="0 0 1536 2008">
  <sodipodi:namedview
     id="base"
     pagecolor="#ffffff"
     bordercolor="#666666"
     borderopacity="1.0"
     inkscape:pageopacity="1"
     inkscape:pageshadow="2"
     inkscape:zoom="0.13972699"
     inkscape:cx="1406.4589"
     inkscape:cy="5.7142857"
     inkscape:document-units="px"
     inkscape:current-layer="layer2"
     showgrid="false"
     borderlayer="true"
     inkscape:window-width="1215"
     inkscape:window-height="1000"
     inkscape:window-x="1431"
     inkscape:window-y="24"
     inkscape:window-maximized="1"
     showguides="true"
     inkscape:guide-bbox="true" />
  <defs
     id="defs4">
    <clipPath
       id="clipPath1216"
       clipPathUnits="userSpaceOnUse">
      <path
         style="fill:none;stroke:#ff0000;stroke-width:0.77522433px;stroke-linecap:butt;stroke-linejoin:miter;stroke-opacity:1"
         d="m 179.28039,165.89389 c 0,0 15.82633,4.09044 31.978,2.90709 10.07686,-0.73828 41.1838,-9.20579 41.1838,-9.20579 0,0 -25.69177,26.43254 -41.1838,27.13285 -13.66924,0.61792 -31.978,-20.83415 -31.978,-20.83415 z"
         id="path1218"
         inkscape:connector-curvature="0"
         sodipodi:nodetypes="cscsc" />
    </clipPath>
    <clipPath
       id="clipPath1216-0"
       clipPathUnits="userSpaceOnUse">
      <path
         style="fill:none;stroke:#ff0000;stroke-width:0.77522433px;stroke-linecap:butt;stroke-linejoin:miter;stroke-opacity:1"
         d="m 179.28039,165.89389 c 0,0 15.82633,4.09044 31.978,2.90709 10.07686,-0.73828 41.1838,-9.20579 41.1838,-9.20579 0,0 -25.69177,26.43254 -41.1838,27.13285 -13.66924,0.61792 -31.978,-20.83415 -31.978,-20.83415 z"
         id="path1218-7"
         inkscape:connector-curvature="0"
         sodipodi:nodetypes="cscsc" />
    </clipPath>
  </defs>
  <metadata
     id="metadata7">
    <rdf:RDF>
      <cc:Work
         rdf:about="">
        <dc:format>image/svg+xml</dc:format>
        <dc:type
           rdf:resource="http://purl.org/dc/dcmitype/StillImage" />
        <dc:title />
      </cc:Work>
    </rdf:RDF>
  </metadata>
  <g
     inkscape:groupmode="layer"
     id="layer2"
     inkscape:label="bg"
     transform="translate(0,1263.91)">
    <path
       style="fill:#e6e6e6"
       d="m 1064.0226,-335.95305 c 0,3.93525 -2.0348,7.26581 -3.153,10.03459 -4.6983,5.21519 -2.3112,2.13799 -4.442,-3.46373 0.5487,3.18524 0.3089,-0.73991 -1.8543,-4.10084 0,-1.16987 -0.5719,-3.45267 -1.2702,-5.07327 -0.6912,-1.62015 -1.3962,-3.48598 -1.5516,-4.14575 -0.1545,-0.6597 -1.2047,-3.63073 -2.3321,-6.60175 -1.1322,-2.97097 -2.5631,-6.7909 -3.1915,-8.48877 -1.0724,-2.89912 -3.7572,-8.16735 -7.2447,-14.21123 -1.5067,-2.61195 -2.6119,-4.11141 -5.2996,-7.19391 -0.7625,-0.87788 -1.3933,-1.94834 -1.3933,-2.37836 0,-0.42951 -0.1883,-0.59312 -0.4344,-0.36196 -0.2364,0.23167 -1.8778,-0.92616 -3.6452,-2.57235 -1.7664,-1.64625 -3.6312,-2.98165 -4.1423,-2.96714 -2.7876,0.0772 -6.4545,5.4999 -16.6808,24.66862 -2.6042,4.88118 -5.2282,9.55967 -5.831,10.39706 -0.6076,0.83733 -1.0965,2.11048 -1.0965,2.82961 0,0.71906 -0.2896,1.42321 -0.62017,1.56463 -13.7894,28.7873 -23.5697,47.21369 -35.194,75.17284 0,0.29922 -1.0487,2.19543 -2.3325,4.21714 -2.9903,5.2393 -3.6486,8.04575 -7.4048,12.70058 -0.3475,0.4247 -1.6757,2.09507 -2.957,3.71279 -5.1501,6.50185 -10.1949,8.89083 -16.92455,8.01538 -1.91458,-0.25099 -12.21075,-4.75672 -24.99444,-10.94246 -11.95543,-5.78561 -21.97751,-10.46992 -22.26903,-10.4096 -0.28955,0.058 -0.75047,-0.21235 -1.01301,-0.60374 -0.92952,-1.36194 -28.1116,-14.0708 -29.01845,-13.56793 -0.49903,0.2799 -0.64333,0.22681 -0.33299,-0.12064 0.58443,-0.62406 -12.42842,-7.50041 -14.31114,-7.56361 -0.54822,0 -0.98936,-0.38127 -0.98936,-0.80503 0,-0.4247 -0.20269,-0.57238 -0.45368,-0.32818 -0.57188,0.55794 1.86391,5.21615 2.73168,5.21615 0.36196,0 0.64332,0.48599 0.64332,1.07916 9.8903,24.57692 25.12318,52.20108 35.26253,73.84321 2.70994,5.76635 5.7022,11.36084 6.65049,12.43277 1.01403,1.14959 4.2514,2.81413 7.88509,4.0603 3.38656,1.16161 7.00953,2.76104 8.04962,3.55494 1.03762,0.79344 2.0656,1.27412 2.27749,1.06854 0.21714,-0.20755 8.05056,3.41307 17.41626,8.04237 22.86217,11.30001 24.10057,11.94142 24.77477,12.83286 0.3234,0.4247 0.5961,0.45847 0.5961,0.0724 0,-0.38613 0.6433,-0.1931 1.4054,0.42471 0.7624,0.61819 3.54,2.10178 6.1659,3.29672 2.6264,1.19545 5.9999,3.06371 7.4984,4.15151 1.4967,1.08831 2.4132,1.48167 2.0352,0.87403 -0.5834,-0.94689 -0.4994,-0.9522 0.6675,-0.0486 23.5866,11.70547 45.53467,26.41861 69.54837,36.47161 5.5752,3.03276 10.8184,4.8421 17.7344,7.52786 v -3.62638 c 1.4965,-12.21031 2.9955,1.95653 3.4521,6.02016 1.64,14.739227 0.5246,71.249137 -1.4488,73.159827 -1.9976,1.93675 -2.8923,-7.50763 -3.0748,-32.45037 -0.1255,-10.07951 -0.1641,-18.32698 -0.2172,-18.32794 0,0 -1.7972,2.11579 -3.8947,4.70356 -2.0965,2.58783 -4.5762,5.45315 -5.5081,6.36675 -0.9296,0.9136 -2.4049,2.75527 -3.2688,4.09261 -0.8702,1.33734 -3.4604,4.63653 -5.7688,7.33099 -2.3098,2.69495 -4.5747,5.34694 -5.0332,5.89327 -0.4633,0.54633 -2.6506,3.15054 -4.8682,5.78757 -4.6809,5.56412 -10.4454,10.913 -13.5032,12.52832 -2.0057,1.05935 -2.1742,1.02267 -2.7389,-0.60134 -0.9652,-2.77603 -0.1255,-6.0564 4.3508,-16.36756 0.7273,-1.68434 1.3518,-3.24706 1.3885,-3.47293 0.1255,-0.51399 1.0015,-2.79968 2.3036,-5.81267 0.5487,-1.27363 1.652,-4.05159 2.4397,-6.17367 0.7861,-2.12208 1.678,-4.20603 1.9806,-4.63025 0.6675,-0.93966 1.8745,-5.18236 1.6979,-5.97241 -0.1256,-0.31373 0.3956,-1.87645 1.0135,-3.47243 2.0863,-5.29098 2.8493,-14.014797 1.8919,-21.636807 -5.3335,-6.74944 -13.7509,-11.51 -20.55,-14.44917 -0.8817,-0.76831 -1.5969,-1.08249 -1.6028,-0.69884 0,0.38613 -0.2895,0.31373 -0.5961,-0.15927 -9.03937,-4.53029 -19.07497,-9.4849 -27.64097,-13.37673 -10.3845,-4.81076 -15.9114,-7.22627 -17.0297,-7.44151 -0.6202,-0.11583 -1.4136,-0.67134 -1.778,-1.23018 -0.3668,-0.55889 -0.6679,-0.74854 -0.6679,-0.4199 0,0.32818 -1.3547,-0.0676 -2.9966,-0.87884 -1.6414,-0.81033 -4.5072,-1.91406 -6.3667,-2.45319 -1.8605,-0.53856 -3.3818,-1.21425 -3.3818,-1.50042 0,-0.28476 -0.4391,-0.52558 -0.9893,-0.53088 -0.5478,-0.006 -5.29242,-1.66218 -10.54283,-3.68241 -10.82709,-4.16405 -21.80906,-8.27839 -28.25305,-10.58383 -2.40587,-0.86099 -5.0921,-1.86052 -5.96709,-2.22102 -0.88172,-0.36196 -3.56218,-1.39961 -5.9676,-2.30984 -2.40872,-0.90974 -5.98884,-2.33634 -7.95839,-3.16983 -1.97056,-0.83303 -3.9401,-1.56367 -4.37884,-1.62303 -0.43435,-0.058 -1.15585,-0.39579 -1.59066,-0.74132 -19.99253,-13.2518 -33.69649,-36.67622 -48.61718,-52.96603 0.22201,-0.35716 -1.45219,-2.70174 -3.73256,-5.20893 -2.28184,-2.50723 -4.41983,-4.90586 -4.75332,-5.33006 -1.74757,-2.22824 -9.53754,-11.65576 -13.72091,-16.60213 -2.62493,-3.10662 -6.17026,-7.4135 -7.87728,-9.5713 -1.70656,-2.15776 -3.33541,-4.09696 -3.61916,-4.30931 -0.28475,-0.21235 -2.2881,-2.64284 -4.45603,-5.40148 -2.16747,-2.75867 -4.52696,-5.58438 -5.24461,-6.27939 -6.64618,-5.87829 -11.80153,-15.05725 -21.64068,-26.51896 -0.82239,-0.84845 -2.03425,-2.32143 -2.69302,-3.27312 -0.65588,-0.95124 -1.52556,-1.53278 -1.92565,-1.29292 -0.41023,0.24126 -0.63224,0.10617 -0.51254,-0.29928 0.34748,-1.15438 -3.35276,-5.64904 -4.21907,-5.13019 -1.32382,-2.53909 -3.47968,-4.88317 -5.89278,-7.68719 -1.52556,-1.52171 -2.57285,-2.76737 -2.33105,-2.76737 0.25096,0 0,-0.44882 -0.6081,-0.99416 -1.34555,-1.2722 -8.28947,-4.1375 -11.39755,-4.70216 -1.31224,-0.23652 -4.53131,-0.95219 -7.15434,-1.58637 -8.55396,-2.06898 -23.51854,-3.40974 -43.37881,-3.88703 -10.72332,-0.25578 -21.2869,-0.64813 -23.47461,-0.8663 l -3.98065,-0.39573 5.57136,5.12008 c 5.23787,4.8146 9.62344,7.82087 10.913,7.48206 0.30887,-0.0821 0.38126,0.34265 0.14478,0.93967 0.47779,1.88847 1.96764,2.42179 3.67273,3.44492 0.21235,0.25578 1.09651,0.98405 1.94255,1.62111 1.21813,0.91267 1.40393,0.92809 0.87016,0.0724 -0.45366,-0.73601 -0.38127,-0.9073 0.25096,-0.53331 0.51254,0.30407 0.91746,0.90831 0.91746,1.34607 0,1.05691 4.14232,5.28081 4.79434,4.88938 0.28474,-0.16893 0.51254,0.18343 0.51254,0.78333 0,0.59939 -0.39574,0.87206 -0.87016,0.60521 -0.47779,-0.26545 -0.28475,0.18338 0.42953,0.99851 0.71524,0.81564 1.57238,2.34842 1.9049,3.40584 0.33301,1.05742 1.59457,4.00912 2.80016,6.55979 1.20752,2.55016 4.40246,9.67218 7.10174,15.82653 2.6993,6.15434 5.7538,13.0997 6.7866,15.43421 1.03715,2.33442 2.64331,6.13554 3.57766,8.4468 0.93001,2.31126 3.94252,9.0829 6.68718,15.04805 2.74465,5.96565 5.63554,12.31259 6.428,14.10505 0.78668,1.79247 1.75433,3.06851 2.14139,2.83639 0.39575,-0.23167 0.65587,-0.13515 0.59604,0.21235 -0.32336,1.7958 0.33783,2.6674 3.05836,4.05301 4.24318,2.15974 9.17748,7.04578 12.5452,12.42261 1.67662,2.6752 3.26058,4.41067 3.75623,4.11389 0.47779,-0.28962 0.63126,-0.15446 0.33301,0.30887 -0.28475,0.45362 0,2.67565 0.5719,4.94246 0.97731,3.63655 0.95318,4.20268 -0.1303,4.80839 -0.76254,0.42471 -1.77942,0.35231 -2.68772,-0.19789 -1.75528,-1.06323 -1.791,-0.81174 -0.35713,2.52022 1.28714,2.98695 0.88223,3.91984 -2.16407,5.04486 -1.40394,0.51784 -2.03665,0.53517 -1.72778,0.048 0.27509,-0.42471 0.14479,-0.76928 -0.29922,-0.76928 -0.42953,0 -0.89382,0.78136 -1.03715,1.73599 -0.33301,2.2702 -4.30303,2.93623 -4.86915,0.81654 -0.34748,-1.27943 -0.38127,-1.28326 -0.46332,-0.048 -0.12065,0.97151 -0.77459,1.35086 -2.51685,1.35086 -1.90586,0 -2.63269,-0.46819 -3.3822,-2.17712 -0.52461,-1.19737 -2.29919,-3.3161 -3.93866,-4.70797 -1.63993,-1.39233 -2.81367,-2.79386 -2.61097,-3.11431 0.2027,-0.31853 -0.35713,-2.9773 -1.24178,-5.90292 -1.02508,-3.38076 -1.5579,-7.14856 -1.45799,-10.33578 0.30888,-10.18713 0.17856,-11.15047 -2.60374,-16.97758 -1.51445,-3.18338 -3.74175,-8.04531 -4.9507,-10.80443 -6.40629,-14.63159 -8.81843,-19.73095 -9.56938,-20.22467 -0.45366,-0.29921 -0.83397,-0.99851 -0.84604,-1.55114 0,-2.13511 -4.65341,-12.10845 -5.41981,-11.64997 -0.43919,0.26544 -0.56033,0.10617 -0.27509,-0.3523 -2.56706,-7.45021 -5.02408,-12.35795 -8.18861,-19.33087 -4.03373,-9.927 -6.31604,-13.75653 -9.35751,-15.70826 -1.66938,-1.07097 -3.39137,-2.03763 -3.82862,-2.14816 -0.42953,-0.11098 -1.69255,-0.81756 -2.78665,-1.56994 -11.31646,-6.19157 -21.17831,-12.12537 -31.80945,-17.80915 -17.23,-9.48638 -20.52291,-10.81409 -30.53244,-12.30345 -12.14223,-1.80788 -15.8748,-2.58923 -24.67344,-5.16351 l -7.03853,-2.05937 -2.90922,3.12882 c -9.53463,10.25519 -11.24504,12.76627 -11.54426,16.95686 -0.12066,0.91458 -0.39576,1.50188 -0.71476,1.30501 -1.04873,-0.62983 -0.61968,5.38987 0.66746,9.37969 1.71716,5.31464 2.12594,7.96471 1.56224,10.1437 -0.52461,2.04774 -5.51682,6.96372 -7.7668,7.65629 -0.7746,0.24133 -1.42614,0.763 -1.42614,1.15874 0,0.39579 -0.64381,0.72008 -1.4218,0.72008 -0.7746,0 -2.06657,1.06227 -2.85662,2.36096 -1.78858,2.93438 -4.63942,4.0381 -8.81746,3.41358 -3.16983,-0.47294 -17.65813,-2.97436 -22.31873,-3.85223 -10.385,-1.95659 -12.3189,-2.12404 -13.5085,-1.16698 -0.667,0.53715 -1.2143,1.29631 -1.2143,1.68674 0,0.39092 -0.3571,1.1293 -0.7867,1.64189 -0.4392,0.51253 -1.4237,1.73068 -2.1891,2.70649 -0.7746,0.97586 -2.8253,2.10953 -4.5748,2.51932 -6.7263,1.57333 -9.8975,2.03853 -9.4839,1.39086 0.2364,-0.36676 0,-0.66841 -0.4054,-0.66841 -1.5029,0 -7.8474,-4.98595 -8.3508,-6.55973 -1.1795,-3.70851 -2.8528,-19.07458 -2.8528,-26.21015 0,-7.95257 0.6318,-9.96993 3.9421,-12.5703 1.0728,-0.83733 1.013,-0.90685 -0.3572,-0.52026 -1.5921,0.44402 -1.5921,0.44402 0,-0.51784 0.8823,-0.52992 2.1071,-1.66358 2.7374,-2.51927 1.4793,-2.01108 3.0285,-3.43193 6.8421,-6.27983 1.7051,-1.27367 3.7968,-2.9778 4.6462,-3.78808 1.4686,-1.40057 2.1134,-1.42858 13.1557,-0.57098 14.1374,1.09751 23.1696,1.09265 27.9259,0 1.97,-0.45848 5.551,-0.87788 7.95981,-0.93097 4.03277,-0.0869 4.64183,-0.3571 7.75762,-3.38122 1.8605,-1.80646 3.3822,-3.46813 3.3822,-3.69251 10.51724,-10.47235 22.58467,-27.58802 34.84417,-32.77763 6.58437,-3.51777 14.42839,-7.42123 21.06489,-9.61858 2.95653,-0.92419 5.23063,-1.82719 5.05399,-2.00622 -0.16891,-0.17859 2.18579,-0.41991 5.24993,-0.53332 3.06367,-0.11583 6.16209,-0.514 6.88312,-0.88849 3.08201,-1.60039 11.15237,-8.40049 10.63308,-8.95888 -0.30888,-0.33299 -0.14479,-0.37162 0.38126,-0.0821 0.52413,0.29441 2.29872,-0.59843 3.97776,-1.99708 7.70695,-7.95743 7.80491,-6.03563 13.29617,-12.30198 -0.35714,-0.55595 -0.2027,-0.6684 0.40539,-0.30401 0.6081,0.36196 3.59069,-1.93433 8.10753,-6.24753 3.93045,-3.75284 7.76052,-7.06894 8.51148,-7.3686 1.77797,-0.70998 15.38881,-3.44159 41.55547,-8.34164 11.59783,-2.17177 26.81772,-5.18526 33.82149,-6.6963 7.00232,-1.51161 13.52975,-2.91647 14.50224,-3.1221 1.82333,-0.38608 3.10806,-1.45654 8.57566,-7.15094 1.75094,-1.82387 4.61577,-3.97394 6.36623,-4.7775 1.75095,-0.80355 4.43576,-2.19396 5.96808,-3.08974 2.25045,-1.31512 4.16162,-1.64184 9.94773,-1.7017 6.94638,-0.0724 7.1597,0 7.06656,1.66313 -0.12069,1.54583 0.2847,1.73644 3.32762,1.73644 3.95892,0 9.01778,2.71038 9.0689,4.86 0,2.03035 -3.5868,4.97099 -9.89126,7.99652 -6.6235,3.17948 -6.45311,3.0371 -5.29482,4.3904 1.2321,1.43914 0.40539,3.32135 -1.7461,3.93141 -0.95321,0.27024 -5.24032,0.70461 -9.52162,0.96136 -6.30929,0.37647 -8.71563,0.19309 -12.6649,-0.96423 l -4.87542,-1.43147 -10.43231,2.05644 c -5.7369,1.13123 -19.37766,4.16545 -30.31043,6.74318 -10.93182,2.57715 -23.09817,5.43912 -27.03828,6.35896 -3.93962,0.92035 -7.28273,1.95415 -7.42993,2.2968 -0.14478,0.34265 -0.51254,0.46814 -0.83445,0.28476 -1.12064,-0.67134 -13.98872,2.57958 -14.87626,3.75865 -0.50096,0.66213 -1.22634,1.21137 -1.61629,1.22097 -0.39575,0 -2.8576,1.94162 -5.48304,4.29343 -2.62691,2.35176 -5.84935,5.23541 -7.16256,6.40867 -5.37204,4.79918 -10.73732,11.04575 -10.2296,11.90815 0.29922,0.49999 0.25096,0.65785 -0.12066,0.35231 -0.59603,-0.52072 -5.14858,3.80835 -5.17561,4.92032 0,0.71286 5.8701,1.24566 33.01311,2.98645 32.20664,2.06564 45.69393,3.42419 64.45865,6.49269 9.18715,1.50241 25.71879,5.93573 30.52038,8.18476 1.77073,0.83009 3.91936,1.61292 4.77552,1.73937 0.85762,0.12543 2.03762,0.60662 2.62738,1.06702 10.6374,2.69016 12.6678,7.63071 22.25696,11.38163 0.58397,-0.34745 0.73888,-0.24128 0.40539,0.28475 -0.32333,0.51061 2.08925,2.48645 6.04241,4.94252 3.62011,2.25044 8.19486,5.21807 10.16641,6.59402 1.97099,1.37595 5.55349,3.76396 7.95935,5.3064 2.40925,1.54295 7.49798,5.01826 11.31357,7.72339 3.81315,2.70507 7.32663,4.91835 7.80488,4.91835 0.47779,0 0.68004,0.28955 0.45368,0.64717 -0.22681,0.35716 0.91798,1.38323 2.53954,2.28183 1.62304,0.89912 4.34742,2.85423 6.05303,4.34506 1.70413,1.49031 3.49564,2.49125 3.97823,2.2244 0.48887,-0.26544 0.61967,-0.20755 0.28956,0.13995 -0.30887,0.34264 1.86001,2.39473 4.84211,4.56073 8.42459,6.11962 22.14111,16.95059 30.75639,24.28446 1.31417,1.11824 5.69973,4.7924 9.74844,8.16402 4.04725,3.37156 7.35995,6.41058 7.35995,6.75232 0,0.34264 0.40056,0.6221 0.89382,0.6221 0.49903,0 1.66021,0.78231 2.58491,1.73886 0.91792,0.95604 2.93578,2.72778 4.46906,3.93672 1.53132,1.20946 2.2818,1.93581 1.66795,1.61485 -0.73849,-0.38607 -0.92907,-0.28475 -0.54778,0.30887 0.30889,0.49034 1.00135,0.89138 1.54584,0.89138 0.53618,0 4.54577,3.28809 8.90528,7.30738 4.35995,4.01926 8.34976,7.31847 8.86567,7.33102 0.5242,0 1.8186,1.11626 2.8948,2.45075 l 1.959,2.42704 0.5723,-2.62013 c 0.9773,-4.4401 3.7693,-11.84979 4.693,-12.44726 0.4889,-0.30887 0.5599,-0.57239 0.1786,-0.57866 -0.3813,0 -0.2896,-0.49711 0.2268,-1.09069 0.5145,-0.59317 1.0492,-1.73599 1.2124,-2.53908 0.164,-0.80311 1.4049,-3.29289 2.7673,-5.53277 1.3619,-2.23982 2.1332,-3.8672 1.7147,-3.61627 -0.941,0.56229 3.1506,-6.72623 4.1428,-7.38356 0.3958,-0.26065 0.6555,-0.7032 0.5956,-0.98553 12.8372,-29.11984 28.5416,-46.97383 41.78037,-72.62649 0.8691,-1.69787 1.7938,-3.26058 2.0656,-3.47294 0.2751,-0.21235 1.4614,-2.18724 2.6433,-4.38893 1.18,-2.20176 2.6612,-4.41452 3.2857,-4.9179 0.6317,-0.50293 1.1322,-1.35037 1.1322,-1.88272 0,-0.5328 0.5241,-1.39814 1.18,-1.92225 0.6433,-0.52461 1.0004,-1.22537 0.7983,-1.55746 -0.2173,-0.33298 0.1785,-0.81078 0.858,-1.06464 0.6796,-0.25578 1.0252,-0.78712 0.7746,-1.18579 -0.5362,-0.8523 11.4516,-12.52686 12.329,-12.00033 0.3283,0.1979 0.7742,-0.0772 1.0005,-0.60233 0.2172,-0.52794 1.776,-1.63749 3.4643,-2.46521 1.6901,-0.82818 3.6997,-2.01058 4.4652,-2.62788 0.7629,-0.61724 1.3923,-0.8711 1.3923,-0.56414 0,0.30887 0.9894,-0.0917 2.1892,-0.88274 5.9859,-3.94107 9.7315,-4.25333 12.1128,-1.00964 1.8324,2.49566 4.2412,8.7803 5.1124,13.34205 0.2992,1.59164 0.9536,2.89377 1.4444,2.89377 0.489,0 0.6555,-0.22681 0.3669,-0.50773 -0.2897,-0.2799 -0.1256,-0.9932 0.4005,-1.58683 0.5145,-0.59363 0.5965,-1.01885 0.1882,-0.94452 -1.8272,0.33784 -2.1023,-0.13995 -0.6795,-1.19059 1.2466,-0.92182 1.3363,-1.27655 0.4633,-1.83301 -0.6433,-0.4102 -0.763,-0.87833 -0.2992,-1.15682 0.4343,-0.25579 0.8103,-1.97777 0.846,-3.82383 0.1254,-3.70698 1.2886,-7.47765 2.4039,-7.47765 2.6709,0 3.362,5.08772 3.6418,26.80609 0.1256,9.32665 0.4537,17.33135 0.7505,17.78791 0.2993,0.45848 0.1593,1.05888 -0.3088,1.33834 -0.584,0.34744 -0.5363,0.86437 0.1448,1.65533 0.5839,0.68388 0.679,1.35765 0.2364,1.66748 0.9527,11.677 -0.5728,19.63347 -1.235,31.61928 z"
       id="path3004"
       inkscape:connector-curvature="0"
       sodipodi:nodetypes="ccccccscscscccccsccccccscccccscsccccccsccccccccccccccccccccccccccccccccccccccsscsccsccccsccscscccccccsccssscsccccccscsccccsccsccccsccccccccscccscsccscccccccccccsscccccccssccscsccscscsscccscscscccccsscccccscsscsccscscscccccsssccccsccccsscccccccccscccccccsssccccscccccccccscccccscscccccccsscccsccccsccssccccc" />
  </g>
  <g
     id="layer1"
     inkscape:groupmode="layer"
     inkscape:label="Capa 1"
     transform="translate(0,955.63779)">
    <g
       id="g3076"
       inkscape:label="Gear24"
       transform="matrix(2.7502377,0,0,2.7502377,350,532.3622)" />
    <g
       id="g3961"
       transform="matrix(1.9837767,0,0,1.9837767,731.79082,-1118.2906)">
      <text
         xml:space="preserve"
         style="font-style:normal;font-weight:normal;font-size:39.68480682px;line-height:125%;font-family:Sans;letter-spacing:0px;word-spacing:0px;fill:#ffffff;fill-opacity:1;stroke:none"
         x="-1019.2473"
         y="1008.3361"
         id="text3951"><tspan
           sodipodi:role="line"
           id="tspan3953"
           x="-1019.2473"
           y="1008.3361"
           style="font-style:normal;font-variant:normal;font-weight:normal;font-stretch:normal;font-family:Sans;-inkscape-font-specification:Sans">BLADE ENGINE</tspan></text>
      <path
         inkscape:connector-curvature="0"
         id="path3955"
         d="m -1055.8025,955.38754 h 372.1223"
         style="fill:#ffffff;stroke:#ffffff;stroke-width:6.04416943;stroke-linecap:square;stroke-linejoin:miter;stroke-miterlimit:4;stroke-dasharray:none;stroke-opacity:1"
         inkscape:export-xdpi="70"
         inkscape:export-ydpi="70" />
      <text
         id="text3957"
         y="933.60516"
         x="-1041.9575"
         style="font-style:normal;font-weight:normal;font-size:39.68480682px;line-height:125%;font-family:Sans;letter-spacing:0px;word-spacing:0px;fill:#ffffff;fill-opacity:1;stroke:none"
         xml:space="preserve"><tspan
           style="font-style:normal;font-variant:normal;font-weight:normal;font-stretch:normal;font-family:Sans;-inkscape-font-specification:Sans"
           y="933.60516"
           x="-1041.9575"
           id="tspan3959"
           sodipodi:role="line">A D V E N T U R E</tspan></text>
    </g>
  </g>
</svg>
