<?xml version="1.0" encoding="UTF-8" standalone="no"?>
<!-- Created with Inkscape (http://www.inkscape.org/) -->

<svg
   xmlns:dc="http://purl.org/dc/elements/1.1/"
   xmlns:cc="http://creativecommons.org/ns#"
   xmlns:rdf="http://www.w3.org/1999/02/22-rdf-syntax-ns#"
   xmlns:svg="http://www.w3.org/2000/svg"
   xmlns="http://www.w3.org/2000/svg"
   xmlns:sodipodi="http://sodipodi.sourceforge.net/DTD/sodipodi-0.dtd"
   xmlns:inkscape="http://www.inkscape.org/namespaces/inkscape"
   width="207.11"
   height="53.66"
   id="svg2"
   version="1.1"
   inkscape:version="0.92.4 (5da689c313, 2019-01-14)"
   sodipodi:docname="title.svg"
   inkscape:export-filename="images/title.png"
   inkscape:export-xdpi="108.63792"
   inkscape:export-ydpi="108.63792"
   viewBox="0 0 207.11 53.66">
  <defs
     id="defs4" />
  <sodipodi:namedview
     id="base"
     pagecolor="#51c577"
     bordercolor="#666666"
     borderopacity="1.0"
     inkscape:pageopacity="0"
     inkscape:pageshadow="2"
     inkscape:zoom="1.4"
     inkscape:cx="36.626108"
     inkscape:cy="-71.40974"
     inkscape:document-units="px"
     inkscape:current-layer="layer1"
     showgrid="false"
     showborder="true"
     borderlayer="true"
     inkscape:window-width="1920"
     inkscape:window-height="1442"
     inkscape:window-x="-11"
     inkscape:window-y="-11"
     inkscape:window-maximized="1"
     inkscape:snap-global="false"
     fit-margin-top="0"
     fit-margin-left="0"
     fit-margin-right="0"
     fit-margin-bottom="0" />
  <metadata
     id="metadata7">
    <rdf:RDF>
      <cc:Work
         rdf:about="">
        <dc:format>image/svg+xml</dc:format>
        <dc:type
           rdf:resource="http://purl.org/dc/dcmitype/StillImage" />
        <dc:title />
      </cc:Work>
    </rdf:RDF>
  </metadata>
  <g
     inkscape:groupmode="layer"
     id="layer2"
     inkscape:label="bg"
     sodipodi:insensitive="true">
    <rect
       style="color:#000000;display:inline;overflow:visible;visibility:visible;fill:#000000;fill-opacity:1;fill-rule:nonzero;stroke:#ffffff;stroke-width:11.12300014;stroke-linecap:square;stroke-linejoin:round;stroke-miterlimit:4;stroke-dasharray:none;stroke-dashoffset:0;stroke-opacity:1;marker:none;enable-background:accumulate"
       id="rect2989"
       width="430.71429"
       height="300"
       x="-141.42857"
       y="-139.91142"
       rx="5.2145171"
       ry="7.74085" />
  </g>
  <g
     inkscape:label="Capa 1"
     inkscape:groupmode="layer"
     id="layer1"
     transform="translate(0.66431808,-999.6792)">
    <text
       xml:space="preserve"
       style="font-style:normal;font-weight:normal;line-height:0%;font-family:'Andale Mono';-inkscape-font-specification:'Andale Mono';text-align:start;letter-spacing:0px;word-spacing:0px;text-anchor:start;fill:#ffffff;fill-opacity:1;stroke:none"
       x="42.680729"
       y="1026.0645"
       id="text810"><tspan
         sodipodi:role="line"
         id="tspan812"
         x="42.680729"
         y="1026.0645"
         style="font-style:normal;font-variant:normal;font-weight:normal;font-stretch:normal;font-size:18.66666603px;line-height:100%;font-family:'Josefin Sans';-inkscape-font-specification:'Josefin Sans';text-align:start;text-anchor:start">Adventure</tspan><tspan
         sodipodi:role="line"
         x="42.680729"
         y="1047.7382"
         id="tspan814"
         style="font-style:normal;font-variant:normal;font-weight:normal;font-stretch:normal;font-size:21.33333397px;line-height:100%;font-family:'Paytone One';-inkscape-font-specification:'Paytone One';text-align:start;text-anchor:start">EDITOR</tspan></text>
    <path
       style="fill:#ffffff"
       d="m 24.96836,1051.628 c -0.282985,0 -0.522463,-0.1464 -0.721591,-0.2267 -0.374987,-0.3379 -0.153711,-0.1662 0.249091,-0.3194 -0.22906,0.039 0.05321,0.022 0.29488,-0.1334 0.08414,0 0.248295,-0.041 0.364811,-0.091 0.116512,-0.05 0.25066,-0.1005 0.298112,-0.1116 0.04745,-0.011 0.261073,-0.087 0.474721,-0.1677 0.213644,-0.081 0.488334,-0.1843 0.610414,-0.2295 0.208491,-0.077 0.58733,-0.2702 1.021905,-0.5209 0.18785,-0.1084 0.295669,-0.1879 0.517306,-0.3811 0.06314,-0.055 0.140117,-0.1002 0.171052,-0.1002 0.03094,0 0.04264,-0.014 0.02602,-0.031 -0.01664,-0.017 0.0666,-0.135 0.184975,-0.2621 0.118369,-0.127 0.214389,-0.2611 0.213371,-0.2979 -0.0055,-0.2004 -0.395497,-0.4641 -1.773913,-1.1995 -0.350992,-0.1872 -0.687422,-0.3759 -0.747625,-0.4193 -0.0602,-0.044 -0.151765,-0.079 -0.203472,-0.079 -0.05171,0 -0.102339,-0.021 -0.112511,-0.045 -2.070039,-0.9916 -3.395082,-1.6949 -5.405571,-2.5308 -0.02141,0 -0.157863,-0.075 -0.303238,-0.1677 -0.376758,-0.2151 -0.578571,-0.2624 -0.913298,-0.5325 -0.03052,-0.025 -0.150658,-0.1205 -0.266968,-0.2126 -0.467542,-0.3704 -0.63933,-0.7331 -0.576385,-1.217 0.01791,-0.1377 0.342048,-0.8781 0.786859,-1.7973 0.416024,-0.8597 0.752866,-1.5804 0.748539,-1.6014 -0.0043,-0.021 0.0152,-0.054 0.04341,-0.073 0.09794,-0.067 1.011814,-2.0215 0.975646,-2.0867 -0.02001,-0.036 -0.01615,-0.046 0.0086,-0.024 0.04489,0.042 0.539351,-0.8937 0.543882,-1.0291 0.0015,-0.039 0.02737,-0.071 0.05789,-0.071 0.03052,0 0.04116,-0.015 0.02365,-0.033 -0.04012,-0.041 -0.375108,0.134 -0.375108,0.1964 0,0.026 -0.03492,0.046 -0.0776,0.046 -1.767277,0.7112 -3.753698,1.8065 -5.309941,2.5356 -0.414656,0.1949 -0.816965,0.4101 -0.89402,0.4783 -0.08266,0.073 -0.202373,0.3057 -0.291975,0.567 -0.08354,0.2435 -0.198566,0.504 -0.255633,0.5789 -0.05707,0.074 -0.09164,0.1485 -0.07683,0.1637 0.01483,0.015 -0.245429,0.5789 -0.578319,1.2524 -0.812599,1.644 -0.858709,1.733 -0.922805,1.7815 -0.03052,0.023 -0.03289,0.043 -0.0053,0.043 0.02763,0 0.01384,0.046 -0.03063,0.101 -0.04446,0.055 -0.151155,0.2546 -0.237093,0.4434 -0.08594,0.1889 -0.220276,0.4315 -0.298528,0.5392 -0.07825,0.1076 -0.106529,0.1735 -0.06284,0.1464 0.06809,-0.042 0.06848,-0.036 0.0026,0.048 -0.841707,1.6961 -1.899721,3.2744 -2.6225976,5.0012 -0.218085,0.4009 -0.348209,0.7779 -0.541335,1.2752 h 0.260756 c 0.8780356,0.1076 -0.140681,0.2154 -0.432899,0.2483 -1.05987,0.1179 -5.123415,0.038 -5.260809,-0.1042 -0.139263,-0.1437 0.53987,-0.208 2.333447,-0.2211 0.724799,-0.01 1.317874,-0.012 1.317946,-0.016 5.8e-5,0 -0.152129,-0.1292 -0.338232,-0.28 -0.1861,-0.1508 -0.392115,-0.3291 -0.457813,-0.3961 -0.0657,-0.067 -0.198127,-0.1729 -0.294294,-0.2351 -0.09617,-0.062 -0.333395,-0.2488 -0.527178,-0.4148 -0.193783,-0.1661 -0.384473,-0.3289 -0.423756,-0.3619 -0.03928,-0.033 -0.226572,-0.1906 -0.416193,-0.3501 -0.400096,-0.3366 -0.784733,-0.7511 -0.900879,-0.971 -0.07619,-0.1442 -0.07354,-0.1563 0.04324,-0.1969 0.199618,-0.069 0.435494,-0.01 1.176981,0.3128 0.121095,0.052 0.233468,0.097 0.249715,0.1 0.03696,0.01 0.201338,0.072 0.417992,0.1656 0.09156,0.039 0.291335,0.1188 0.44394,0.1755 0.152606,0.057 0.302436,0.1206 0.332957,0.1424 0.06756,0.048 0.372647,0.1348 0.429452,0.1221 0.02256,-0.01 0.134928,0.028 0.249718,0.073 0.380449,0.1501 1.007771,0.2049 1.555852,0.1361 0.485356,-0.3835 0.827668,-0.9888 1.039037,-1.4777 0.05524,-0.063 0.07784,-0.1148 0.05022,-0.1153 -0.02763,0 -0.02244,-0.02 0.01151,-0.043 0.3257786,-0.65 0.6820606,-1.3717 0.9618996,-1.9877 0.345945,-0.7467 0.51962,-1.1442 0.535094,-1.2245 0.0085,-0.045 0.0483,-0.1017 0.08848,-0.1279 0.04018,-0.027 0.05382,-0.048 0.03031,-0.048 -0.02351,0 0.0049,-0.097 0.06318,-0.2155 0.05826,-0.118 0.137636,-0.3241 0.176389,-0.4578 0.03875,-0.1338 0.08732,-0.2432 0.10792,-0.2432 0.02059,0 0.03777,-0.032 0.03815,-0.071 2.9e-4,-0.039 0.119544,-0.3806 0.264812,-0.7582 0.299433,-0.7785 0.595272,-1.5682 0.761049,-2.0316 0.06194,-0.173 0.133818,-0.3662 0.159731,-0.4291 0.0259,-0.063 0.100648,-0.2561 0.166085,-0.4291 0.06544,-0.1732 0.168007,-0.4307 0.227931,-0.5723 0.05993,-0.1417 0.112456,-0.2833 0.116736,-0.3149 0.0043,-0.031 0.02826,-0.083 0.05329,-0.1144 0.952922,-1.4376 2.637354,-2.423 3.808719,-3.4959 0.02573,0.016 0.194288,-0.1045 0.374573,-0.2684 0.180286,-0.1641 0.352766,-0.3179 0.383288,-0.3419 0.160225,-0.1256 0.838135,-0.6858 1.193828,-0.9866 0.223373,-0.1888 0.533088,-0.4437 0.688254,-0.5664 0.15517,-0.1227 0.294612,-0.2399 0.309872,-0.2603 0.01526,-0.021 0.190049,-0.1645 0.388421,-0.3204 0.198373,-0.1559 0.40157,-0.3256 0.451552,-0.3772 0.422696,-0.4779 1.082718,-0.8486 1.906911,-1.5561 0.06104,-0.059 0.166956,-0.1463 0.235364,-0.1937 0.06841,-0.047 0.110254,-0.1097 0.09299,-0.1385 -0.01728,-0.029 -0.0076,-0.045 0.02154,-0.037 0.08301,0.025 0.406232,-0.2411 0.368927,-0.3034 0.182585,-0.095 0.351145,-0.2502 0.552761,-0.4237 0.109443,-0.1097 0.198987,-0.1851 0.198987,-0.1677 0,0.018 0.03218,0 0.07151,-0.044 0.09147,-0.097 0.297516,-0.5961 0.338109,-0.8196 0.01717,-0.094 0.0685,-0.3258 0.11408,-0.5144 0.148766,-0.6151 0.245195,-1.6912 0.27953,-3.1193 0.01854,-0.7711 0.04658,-1.5307 0.06229,-1.6881 l 0.02858,-0.2862 -0.368182,0.4006 c -0.346198,0.3767 -0.562398,0.692 -0.538009,0.7848 0.0059,0.022 -0.02449,0.027 -0.06757,0.01 -0.135795,0.034 -0.174159,0.1415 -0.247742,0.2642 -0.01831,0.015 -0.07077,0.079 -0.116549,0.1396 -0.06565,0.088 -0.06677,0.101 -0.0053,0.063 0.0529,-0.033 0.06522,-0.027 0.03835,0.018 -0.02177,0.037 -0.06533,0.066 -0.0968,0.066 -0.07601,0 -0.379739,0.2979 -0.351606,0.3447 0.01211,0.021 -0.01324,0.037 -0.05633,0.037 -0.04309,0 -0.06268,-0.028 -0.04352,-0.063 0.01919,-0.034 -0.01315,-0.02 -0.0718,0.031 -0.05865,0.051 -0.168861,0.113 -0.244899,0.1369 -0.07604,0.024 -0.28829,0.1147 -0.471685,0.2014 -0.183392,0.087 -0.695529,0.3166 -1.138081,0.5107 -0.442552,0.1941 -0.941986,0.4137 -1.109851,0.488 -0.167865,0.075 -0.441188,0.1901 -0.607387,0.2573 -0.166198,0.067 -0.653145,0.2834 -1.082104,0.4808 -0.428959,0.1974 -0.885376,0.4053 -1.014258,0.4622 -0.128882,0.057 -0.220668,0.1262 -0.203971,0.154 0.0167,0.028 0.0098,0.047 -0.01537,0.043 -0.129113,-0.023 -0.191799,0.024 -0.291441,0.2199 -0.155299,0.3051 -0.50666,0.6599 -0.893302,0.9021 -0.192376,0.1206 -0.317142,0.2345 -0.295807,0.2701 0.02077,0.034 0.0111,0.045 -0.02212,0.024 -0.03246,-0.021 -0.19239,0 -0.355402,0.041 -0.261508,0.07 -0.302193,0.069 -0.345766,-0.01 -0.03067,-0.055 -0.02524,-0.1279 0.01433,-0.1932 0.07645,-0.1263 0.05839,-0.1288 -0.181217,-0.026 -0.214799,0.092 -0.281877,0.063 -0.362777,-0.1557 -0.03721,-0.1009 -0.03849,-0.1464 -0.0035,-0.1242 0.03043,0.02 0.05532,0.01 0.05532,-0.021 0,-0.031 -0.05618,-0.064 -0.124856,-0.075 -0.163238,-0.024 -0.211126,-0.3094 -0.05872,-0.3501 0.09203,-0.025 0.0923,-0.028 0.0033,-0.034 -0.06984,-0.01 -0.09711,-0.056 -0.09711,-0.181 0,-0.137 0.03363,-0.1893 0.156539,-0.2432 0.0861,-0.038 0.238444,-0.1653 0.338546,-0.2832 0.100104,-0.1179 0.200882,-0.2023 0.22395,-0.1877 0.02307,0.014 0.214086,-0.026 0.424477,-0.089 0.243075,-0.074 0.514027,-0.112 0.743232,-0.1048 0.732525,0.022 0.801799,0.013 1.220836,-0.1873 0.228907,-0.1089 0.57851,-0.2691 0.776897,-0.356 1.052137,-0.4607 1.418839,-0.6341 1.454353,-0.6881 0.0216,-0.033 0.0718,-0.06 0.11153,-0.061 0.153531,0 0.870695,-0.3346 0.837723,-0.3897 -0.01901,-0.032 -0.0076,-0.04 0.02532,-0.02 0.535739,-0.1846 0.888631,-0.3613 1.390031,-0.5888 0.713838,-0.2901 0.989223,-0.4542 1.129587,-0.6729 0.07699,-0.1201 0.146499,-0.2439 0.154472,-0.2754 0.008,-0.031 0.05877,-0.1216 0.112885,-0.2003 0.445204,-0.8138 0.871915,-1.5229 1.280636,-2.2874 0.682152,-1.239 0.777595,-1.4758 0.884724,-2.1955 0.129987,-0.8732 0.18616,-1.1416 0.37128,-1.7743 l 0.148097,-0.5061 -0.224997,-0.2092 c -0.737422,-0.6856 -0.918005,-0.8086 -1.219339,-0.8301 -0.06576,-0.01 -0.107983,-0.028 -0.09384,-0.051 0.04528,-0.076 -0.387599,-0.045 -0.674483,0.048 -0.382177,0.1234 -0.572735,0.1528 -0.729439,0.1123 -0.147238,-0.038 -0.500736,-0.3967 -0.550525,-0.5585 -0.01736,-0.056 -0.05488,-0.1026 -0.08335,-0.1026 -0.02847,0 -0.05175,-0.046 -0.05175,-0.1022 0,-0.056 -0.07641,-0.1486 -0.169787,-0.2054 -0.211008,-0.1286 -0.290375,-0.3336 -0.245484,-0.6341 0.03406,-0.2279 0.213896,-1.2697 0.277023,-1.6049 0.140703,-0.7467 0.152724,-0.8858 0.08393,-0.9713 -0.03864,-0.048 -0.09323,-0.087 -0.121295,-0.087 -0.02807,0 -0.08121,-0.026 -0.118063,-0.057 -0.03687,-0.032 -0.124443,-0.1024 -0.194619,-0.1575 -0.07018,-0.056 -0.151701,-0.2031 -0.181156,-0.3289 -0.11315,-0.4837 -0.146601,-0.7117 -0.100035,-0.682 0.02645,0.017 0.04808,0 0.04808,-0.029 0,-0.1081 0.3585,-0.5644 0.471689,-0.6005 0.266651,-0.085 1.371627,-0.2052 1.884742,-0.2052 0.571845,0 0.716905,0.045 0.903893,0.2835 0.06022,0.077 0.06522,0.073 0.03743,-0.026 -0.03208,-0.1145 -0.03208,-0.1145 0.03721,0 0.03811,0.063 0.119633,0.1515 0.181171,0.1968 0.144625,0.1064 0.246801,0.2178 0.451586,0.492 0.09156,0.1227 0.214135,0.2731 0.272382,0.3342 0.100709,0.1055 0.102726,0.1519 0.04107,0.946 -0.07894,1.0166 -0.07858,1.6661 0.0011,2.0081 0.03298,0.1416 0.06311,0.3991 0.06695,0.5723 0.0064,0.29 0.02552,0.3338 0.243142,0.5579 0.129892,0.1338 0.249377,0.2432 0.265523,0.2432 0.753037,0.7563 1.983813,1.624 2.356991,2.5056 0.252945,0.4735 0.533646,1.0375 0.691644,1.5147 0.06648,0.2127 0.131411,0.3762 0.144281,0.3635 0.01286,-0.012 0.03013,0.1572 0.03835,0.3775 0.0082,0.2203 0.03698,0.4431 0.0639,0.495 0.115052,0.2216 0.604035,0.8019 0.644194,0.7645 0.02414,-0.022 0.02685,-0.01 0.006,0.028 -0.02097,0.038 0.04305,0.1653 0.143615,0.286 0.572218,0.5542 0.434023,0.5612 0.884614,0.9561 0.03999,-0.026 0.04808,-0.015 0.02191,0.029 -0.02619,0.044 0.139107,0.2582 0.449238,0.5829 0.269864,0.2827 0.50831,0.5581 0.529881,0.6121 0.05103,0.1278 0.247491,1.1066 0.599819,2.9882 0.156179,0.834 0.372878,1.9284 0.481551,2.432 0.108672,0.5036 0.209689,0.973 0.224479,1.0429 0.02772,0.1311 0.104751,0.2235 0.514236,0.6166 0.131143,0.1259 0.28573,0.3319 0.343527,0.4578 0.05779,0.1259 0.157771,0.319 0.222165,0.4292 0.09458,0.1618 0.118094,0.2993 0.122369,0.7153 0.0051,0.4995 0.0015,0.5149 -0.119569,0.5082 -0.111156,-0.01 -0.124859,0.02 -0.124859,0.2392 0,0.2847 -0.194903,0.6485 -0.349478,0.6522 -0.145997,0 -0.357459,-0.258 -0.575031,-0.7113 -0.228625,-0.4763 -0.21841,-0.464 -0.315698,-0.3807 -0.10348,0.089 -0.238836,0.029 -0.282704,-0.1256 -0.01956,-0.068 -0.05067,-0.3768 -0.06915,-0.6847 -0.0272,-0.4537 -0.01401,-0.6267 0.06935,-0.9107 l 0.102942,-0.3506 -0.147895,-0.7501 c -0.08134,-0.4126 -0.299534,-1.3935 -0.48487,-2.1796 -0.185335,-0.7861 -0.391118,-1.661 -0.457291,-1.9443 -0.06617,-0.2833 -0.140494,-0.5237 -0.16516,-0.5343 -0.02466,-0.01 -0.0338,-0.037 -0.0203,-0.06 0.04829,-0.081 -0.185471,-1.0059 -0.270273,-1.0697 -0.0476,-0.036 -0.0871,-0.088 -0.08779,-0.1162 -5.78e-4,-0.028 -0.139627,-0.2055 -0.308738,-0.3943 -0.169112,-0.1889 -0.376484,-0.4206 -0.460828,-0.5151 -0.345119,-0.3863 -0.794293,-0.7721 -0.856293,-0.7356 -0.03597,0.021 -0.04732,0.018 -0.0252,-0.01 0.03744,-0.043 -0.273855,-0.3703 -0.353818,-0.3722 -0.05126,0 -0.08957,0.4221 -0.214761,2.3739 -0.14855,2.316 -0.246239,3.2858 -0.466889,4.6351 -0.108021,0.6607 -0.426819,1.8494 -0.588553,2.1947 -0.05968,0.1274 -0.115955,0.2819 -0.125058,0.3434 -0.0091,0.062 -0.04364,0.1465 -0.07675,0.189 -0.193428,0.7649 -0.548695,0.9109 -0.818442,1.6004 0.02503,0.042 0.01719,0.053 -0.02033,0.029 -0.03671,-0.023 -0.178784,0.1502 -0.355402,0.4344 -0.161838,0.2604 -0.375212,0.5894 -0.474164,0.7311 -0.09895,0.1417 -0.270669,0.3993 -0.381591,0.5724 -0.110925,0.1732 -0.360839,0.5392 -0.555363,0.8135 -0.194528,0.2742 -0.353684,0.5268 -0.353684,0.5613 0,0.034 -0.02094,0.049 -0.04654,0.033 -0.02561,-0.016 -0.09943,0.066 -0.164082,0.1827 -0.06465,0.1167 -0.205234,0.3126 -0.312415,0.4352 -0.107182,0.1226 -0.179173,0.2514 -0.159978,0.2861 0.0192,0.035 0.01474,0.044 -0.0099,0.02 -0.02463,-0.022 -0.172215,0.1338 -0.327978,0.3482 -0.440047,0.6058 -1.218889,1.5922 -1.746245,2.2117 -0.08043,0.095 -0.344617,0.4098 -0.587076,0.7009 -0.242457,0.2911 -0.460959,0.5293 -0.485559,0.5293 -0.0246,0 -0.04472,0.029 -0.04472,0.064 0,0.036 -0.05627,0.1194 -0.125035,0.1859 -0.06876,0.066 -0.196166,0.2111 -0.283103,0.3213 -0.08694,0.1101 -0.139185,0.1641 -0.116108,0.12 0.02777,-0.053 0.0203,-0.067 -0.02212,-0.039 -0.03524,0.022 -0.06407,0.072 -0.06407,0.1111 0,0.039 -0.236464,0.3269 -0.525477,0.6404 -0.289013,0.3135 -0.526244,0.6004 -0.527179,0.6375 -8.29e-4,0.038 -0.08024,0.1308 -0.176219,0.2082 l -0.174514,0.1409 0.188388,0.041 c 0.319285,0.07 0.852109,0.271 0.89507,0.3375 0.02241,0.035 0.04115,0.04 0.04162,0.013 5.77e-4,-0.027 0.03575,-0.021 0.07843,0.016 0.04267,0.037 0.124824,0.075 0.182573,0.087 0.05775,0.012 0.236784,0.1011 0.397861,0.199 0.161076,0.098 0.278101,0.1534 0.260054,0.1233 -0.04043,-0.068 0.483671,0.2266 0.530946,0.2979 0.01866,0.028 0.05056,0.047 0.07085,0.043 2.093964,0.9231 3.377822,2.0524 5.222486,3.0043 0.122084,0.063 0.234453,0.1291 0.249714,0.1486 0.01526,0.02 0.157284,0.1051 0.315609,0.1901 0.158321,0.085 0.317451,0.1913 0.353622,0.2362 0.03616,0.045 0.09711,0.081 0.135412,0.081 0.03831,0 0.100507,0.038 0.138225,0.085 0.03772,0.046 0.0881,0.072 0.111963,0.057 0.02388,-0.015 0.05832,0.013 0.07656,0.062 0.01825,0.049 0.05662,0.074 0.08527,0.056 0.06129,-0.039 0.9008,0.8235 0.862957,0.8865 -0.01416,0.024 0.0054,0.056 0.04329,0.072 0.03798,0.015 0.117754,0.1277 0.177283,0.2491 0.05953,0.1215 0.144558,0.266 0.188953,0.3211 0.0444,0.055 0.06265,0.1001 0.04059,0.1001 -0.02207,0 0.0065,0.071 0.06347,0.1574 0.283405,0.4305 0.305848,0.6998 0.07259,0.8711 -0.17946,0.1318 -0.631355,0.305 -0.959394,0.3676 -0.114453,0.021 -0.208095,0.069 -0.208095,0.1039 0,0.035 0.01644,0.047 0.03651,0.026 0.02007,-0.021 0.07144,-0.01 0.114118,0.029 0.04268,0.037 0.07324,0.043 0.0679,0.014 -0.02423,-0.1314 0.01021,-0.1512 0.08563,-0.049 0.06628,0.09 0.09178,0.096 0.131792,0.033 0.02957,-0.046 0.06318,-0.055 0.08321,-0.021 0.01849,0.031 0.142207,0.058 0.274961,0.061 0.266568,0.01 0.537703,0.093 0.537703,0.1728 0,0.1921 -0.365848,0.2418 -1.927591,0.2619 -0.670667,0.01 -1.24626,0.033 -1.279095,0.054 -0.03284,0.021 -0.07614,0.011 -0.09622,-0.022 -0.02519,-0.042 -0.06216,-0.039 -0.11905,0.01 -0.04917,0.042 -0.09764,0.049 -0.119919,0.017 -0.839669,0.069 -1.411788,-0.041 -2.273703,-0.089 z"
       id="path3004"
       inkscape:connector-curvature="0"
       sodipodi:nodetypes="ccccccscscscccccsccccccscccccscsccccccsccccccccccccccccccccccccccccccccccccccsscsccsccccsccscscccccccsccssscsccccccscsccccsccsccccsccccccccscccscsccscccccccccccsscccccccssccscsccscscsscccscscscccccsscccccscsscsccscscscccccsssccccsccccsscccccccccscccccccsssccccscccccccccscccccscscccccccsscccsccccsccssccccc" />
    <text
       id="text4172"
       y="1088.2295"
       x="43.610382"
       style="font-style:normal;font-weight:normal;line-height:0%;font-family:'Andale Mono';-inkscape-font-specification:'Andale Mono';text-align:start;letter-spacing:0px;word-spacing:0px;text-anchor:start;fill:#ffffff;fill-opacity:1;stroke:none"
       xml:space="preserve"><tspan
         style="font-style:normal;font-variant:normal;font-weight:normal;font-stretch:normal;font-size:23.46589661px;line-height:100%;font-family:'Josefin Sans';-inkscape-font-specification:'Josefin Sans';text-align:start;text-anchor:start"
         y="1088.2295"
         x="43.610382"
         id="tspan4168"
         sodipodi:role="line">Adventure</tspan><tspan
         style="font-style:normal;font-variant:normal;font-weight:normal;font-stretch:normal;font-size:28.15907669px;line-height:100%;font-family:'Paytone One';-inkscape-font-specification:'Paytone One';text-align:start;text-anchor:start"
         id="tspan4170"
         y="1116.5444"
         x="43.610382"
         sodipodi:role="line">COMPOSER</tspan></text>
    <path
       sodipodi:nodetypes="ccccccscscscccccsccccccscccccscsccccccsccccccccccccccccccccccccccccccccccccccsscsccsccccsccscscccccccsccssscsccccccscsccccsccsccccsccccccccscccscsccscccccccccccsscccccccssccscsccscscsscccscscscccccsscccccscsscsccscscscccccsssccccsccccsscccccccccscccccccsssccccscccccccccscccccscscccccccsscccsccccsccssccccc"
       inkscape:connector-curvature="0"
       id="path4174"
       d="m 25.898014,1117.793 c -0.282985,0 -0.522463,-0.1464 -0.721591,-0.2267 -0.374987,-0.3379 -0.153711,-0.1662 0.249091,-0.3194 -0.22906,0.039 0.05321,0.022 0.29488,-0.1334 0.08414,0 0.248295,-0.041 0.364811,-0.091 0.116512,-0.05 0.25066,-0.1005 0.298112,-0.1116 0.04745,-0.011 0.261073,-0.087 0.474721,-0.1677 0.213644,-0.081 0.488334,-0.1843 0.610414,-0.2295 0.208491,-0.077 0.58733,-0.2702 1.021905,-0.5209 0.18785,-0.1084 0.295669,-0.1879 0.517306,-0.3811 0.06314,-0.055 0.140117,-0.1002 0.171052,-0.1002 0.03094,0 0.04264,-0.014 0.02602,-0.031 -0.01664,-0.017 0.0666,-0.135 0.184975,-0.2621 0.118369,-0.127 0.214389,-0.2611 0.213371,-0.2979 -0.0055,-0.2004 -0.395497,-0.4641 -1.773913,-1.1995 -0.350992,-0.1872 -0.687422,-0.3759 -0.747625,-0.4193 -0.0602,-0.044 -0.151765,-0.079 -0.203472,-0.079 -0.05171,0 -0.102339,-0.021 -0.112511,-0.045 -2.070039,-0.9916 -3.395082,-1.6949 -5.405571,-2.5308 -0.02141,0 -0.157863,-0.075 -0.303238,-0.1677 -0.376758,-0.2151 -0.578571,-0.2624 -0.913298,-0.5325 -0.03052,-0.025 -0.150658,-0.1205 -0.266968,-0.2126 -0.467542,-0.3704 -0.63933,-0.7331 -0.576385,-1.217 0.01791,-0.1377 0.342048,-0.8781 0.786859,-1.7973 0.416024,-0.8597 0.752866,-1.5804 0.748539,-1.6014 -0.0043,-0.021 0.0152,-0.054 0.04341,-0.073 0.09794,-0.067 1.011814,-2.0215 0.975646,-2.0867 -0.02001,-0.036 -0.01615,-0.046 0.0086,-0.024 0.04489,0.042 0.539351,-0.8937 0.543882,-1.0291 0.0015,-0.039 0.02737,-0.071 0.05789,-0.071 0.03052,0 0.04116,-0.015 0.02365,-0.033 -0.04012,-0.041 -0.375108,0.134 -0.375108,0.1964 0,0.026 -0.03492,0.046 -0.0776,0.046 -1.767277,0.7112 -3.753698,1.8065 -5.309941,2.5356 -0.414656,0.1949 -0.816965,0.4101 -0.89402,0.4783 -0.08266,0.073 -0.202373,0.3057 -0.291975,0.567 -0.08354,0.2435 -0.198566,0.504 -0.255633,0.5789 -0.05707,0.074 -0.09164,0.1485 -0.07683,0.1637 0.01483,0.015 -0.245429,0.5789 -0.578319,1.2524 -0.812599,1.644 -0.858709,1.733 -0.922805,1.7815 -0.03052,0.023 -0.03289,0.043 -0.0053,0.043 0.02763,0 0.01384,0.046 -0.03063,0.101 -0.04446,0.055 -0.151155,0.2546 -0.237093,0.4434 -0.08594,0.1889 -0.220276,0.4315 -0.298528,0.5392 -0.07825,0.1076 -0.106529,0.1735 -0.06284,0.1464 0.06809,-0.042 0.06848,-0.036 0.0026,0.048 -0.841707,1.6961 -1.899721,3.2744 -2.622598,5.0012 -0.218085,0.4009 -0.348209,0.7779 -0.5413351,1.2752 h 0.2607561 c 0.878036,0.1076 -0.140681,0.2154 -0.4328991,0.2483 -1.05987,0.1179 -5.123415,0.038 -5.260809,-0.1042 -0.139263,-0.1437 0.53987,-0.208 2.333447,-0.2211 0.724799,-0.01 1.317874,-0.012 1.317946,-0.016 5.8e-5,0 -0.152129,-0.1292 -0.338232,-0.28 -0.1861,-0.1508 -0.392115,-0.3291 -0.457813,-0.3961 -0.0657,-0.067 -0.198127,-0.1729 -0.294294,-0.2351 -0.09617,-0.062 -0.333395,-0.2488 -0.527178,-0.4148 -0.193783,-0.1661 -0.384473,-0.3289 -0.423756,-0.3619 -0.03928,-0.033 -0.226572,-0.1906 -0.416193,-0.3501 -0.400096,-0.3366 -0.784733,-0.7511 -0.900879,-0.971 -0.07619,-0.1442 -0.07354,-0.1563 0.04324,-0.1969 0.199618,-0.069 0.435494,-0.01 1.176981,0.3128 0.121095,0.052 0.233468,0.097 0.249715,0.1 0.03696,0.01 0.201338,0.072 0.417992,0.1656 0.09156,0.039 0.291335,0.1188 0.44394,0.1755 0.152606,0.057 0.302436,0.1206 0.332957,0.1424 0.06756,0.048 0.372647,0.1348 0.429452,0.1221 0.02256,-0.01 0.134928,0.028 0.249718,0.073 0.380449,0.1501 1.007771,0.2049 1.555852,0.1361 0.4853561,-0.3835 0.8276681,-0.9888 1.0390371,-1.4777 0.05524,-0.063 0.07784,-0.1148 0.05022,-0.1153 -0.02763,0 -0.02244,-0.02 0.01151,-0.043 0.325779,-0.65 0.682061,-1.3717 0.9619,-1.9877 0.345945,-0.7467 0.51962,-1.1442 0.535094,-1.2245 0.0085,-0.045 0.0483,-0.1017 0.08848,-0.1279 0.04018,-0.027 0.05382,-0.048 0.03031,-0.048 -0.02351,0 0.0049,-0.097 0.06318,-0.2155 0.05826,-0.118 0.137636,-0.3241 0.176389,-0.4578 0.03875,-0.1338 0.08732,-0.2432 0.10792,-0.2432 0.02059,0 0.03777,-0.032 0.03815,-0.071 2.9e-4,-0.039 0.119544,-0.3806 0.264812,-0.7582 0.299433,-0.7785 0.595272,-1.5682 0.761049,-2.0316 0.06194,-0.173 0.133818,-0.3662 0.159731,-0.4291 0.0259,-0.063 0.100648,-0.2561 0.166085,-0.4291 0.06544,-0.1732 0.168007,-0.4307 0.227931,-0.5723 0.05993,-0.1417 0.112456,-0.2833 0.116736,-0.3149 0.0043,-0.031 0.02826,-0.083 0.05329,-0.1144 0.952922,-1.4376 2.637354,-2.423 3.808719,-3.4959 0.02573,0.016 0.194288,-0.1045 0.374573,-0.2684 0.180286,-0.1641 0.352766,-0.3179 0.383288,-0.3419 0.160225,-0.1256 0.838135,-0.6858 1.193828,-0.9866 0.223373,-0.1888 0.533088,-0.4437 0.688254,-0.5664 0.15517,-0.1227 0.294612,-0.2399 0.309872,-0.2603 0.01526,-0.021 0.190049,-0.1645 0.388421,-0.3204 0.198373,-0.1559 0.40157,-0.3256 0.451552,-0.3772 0.422696,-0.4779 1.082718,-0.8486 1.906911,-1.5561 0.06104,-0.059 0.166956,-0.1463 0.235364,-0.1937 0.06841,-0.047 0.110254,-0.1097 0.09299,-0.1385 -0.01728,-0.029 -0.0076,-0.045 0.02154,-0.037 0.08301,0.025 0.406232,-0.2411 0.368927,-0.3034 0.182585,-0.095 0.351145,-0.2502 0.552761,-0.4237 0.109443,-0.1097 0.198987,-0.1851 0.198987,-0.1677 0,0.018 0.03218,0 0.07151,-0.044 0.09147,-0.097 0.297516,-0.5961 0.338109,-0.8196 0.01717,-0.094 0.0685,-0.3258 0.11408,-0.5144 0.148766,-0.6151 0.245195,-1.6912 0.27953,-3.1193 0.01854,-0.7711 0.04658,-1.5307 0.06229,-1.6881 l 0.02858,-0.2862 -0.368182,0.4006 c -0.346198,0.3767 -0.562398,0.692 -0.538009,0.7848 0.0059,0.022 -0.02449,0.027 -0.06757,0.01 -0.135795,0.034 -0.174159,0.1415 -0.247742,0.2642 -0.01831,0.015 -0.07077,0.079 -0.116549,0.1396 -0.06565,0.088 -0.06677,0.101 -0.0053,0.063 0.0529,-0.033 0.06522,-0.027 0.03835,0.018 -0.02177,0.037 -0.06533,0.066 -0.0968,0.066 -0.07601,0 -0.379739,0.2979 -0.351606,0.3447 0.01211,0.021 -0.01324,0.037 -0.05633,0.037 -0.04309,0 -0.06268,-0.028 -0.04352,-0.063 0.01919,-0.034 -0.01315,-0.02 -0.0718,0.031 -0.05865,0.051 -0.168861,0.113 -0.244899,0.1369 -0.07604,0.024 -0.28829,0.1147 -0.471685,0.2014 -0.183392,0.087 -0.695529,0.3166 -1.138081,0.5107 -0.442552,0.1941 -0.941986,0.4137 -1.109851,0.488 -0.167865,0.075 -0.441188,0.1901 -0.607387,0.2573 -0.166198,0.067 -0.653145,0.2834 -1.082104,0.4808 -0.428959,0.1974 -0.885376,0.4053 -1.014258,0.4622 -0.128882,0.057 -0.220668,0.1262 -0.203971,0.154 0.0167,0.028 0.0098,0.047 -0.01537,0.043 -0.129113,-0.023 -0.191799,0.024 -0.291441,0.2199 -0.155299,0.3051 -0.50666,0.6599 -0.893302,0.9021 -0.192376,0.1206 -0.317142,0.2345 -0.295807,0.2701 0.02077,0.034 0.0111,0.045 -0.02212,0.024 -0.03246,-0.021 -0.19239,0 -0.355402,0.041 -0.261508,0.07 -0.302193,0.069 -0.345766,-0.01 -0.03067,-0.055 -0.02524,-0.1279 0.01433,-0.1932 0.07645,-0.1263 0.05839,-0.1288 -0.181217,-0.026 -0.214799,0.092 -0.281877,0.063 -0.362777,-0.1557 -0.03721,-0.1009 -0.03849,-0.1464 -0.0035,-0.1242 0.03043,0.02 0.05532,0.01 0.05532,-0.021 0,-0.031 -0.05618,-0.064 -0.124856,-0.075 -0.163238,-0.024 -0.211126,-0.3094 -0.05872,-0.3501 0.09203,-0.025 0.0923,-0.028 0.0033,-0.034 -0.06984,-0.01 -0.09711,-0.056 -0.09711,-0.181 0,-0.137 0.03363,-0.1893 0.156539,-0.2432 0.0861,-0.038 0.238444,-0.1653 0.338546,-0.2832 0.100104,-0.1179 0.200882,-0.2023 0.22395,-0.1877 0.02307,0.014 0.214086,-0.026 0.424477,-0.089 0.243075,-0.074 0.514027,-0.112 0.743232,-0.1048 0.732525,0.022 0.801799,0.013 1.220836,-0.1873 0.228907,-0.1089 0.57851,-0.2691 0.776897,-0.356 1.052137,-0.4607 1.418839,-0.6341 1.454353,-0.6881 0.0216,-0.033 0.0718,-0.06 0.11153,-0.061 0.153531,0 0.870695,-0.3346 0.837723,-0.3897 -0.01901,-0.032 -0.0076,-0.04 0.02532,-0.02 0.535739,-0.1846 0.888631,-0.3613 1.390031,-0.5888 0.713838,-0.2901 0.989223,-0.4542 1.129587,-0.6729 0.07699,-0.1201 0.146499,-0.2439 0.154472,-0.2754 0.008,-0.031 0.05877,-0.1216 0.112885,-0.2003 0.445204,-0.8138 0.871915,-1.5229 1.280636,-2.2874 0.682152,-1.239 0.777595,-1.4758 0.884724,-2.1955 0.129987,-0.8732 0.18616,-1.1416 0.37128,-1.7743 l 0.148097,-0.5061 -0.224997,-0.2092 c -0.737422,-0.6856 -0.918005,-0.8086 -1.219339,-0.8301 -0.06576,-0.01 -0.107983,-0.028 -0.09384,-0.051 0.04528,-0.076 -0.387599,-0.045 -0.674483,0.048 -0.382177,0.1234 -0.572735,0.1528 -0.729439,0.1123 -0.147238,-0.038 -0.500736,-0.3967 -0.550525,-0.5585 -0.01736,-0.056 -0.05488,-0.1026 -0.08335,-0.1026 -0.02847,0 -0.05175,-0.046 -0.05175,-0.1022 0,-0.056 -0.07641,-0.1486 -0.169787,-0.2054 -0.211008,-0.1286 -0.290375,-0.3336 -0.245484,-0.6341 0.03406,-0.2279 0.213896,-1.2697 0.277023,-1.6049 0.140703,-0.7467 0.152724,-0.8858 0.08393,-0.9713 -0.03864,-0.048 -0.09323,-0.087 -0.121295,-0.087 -0.02807,0 -0.08121,-0.026 -0.118063,-0.057 -0.03687,-0.032 -0.124443,-0.1024 -0.194619,-0.1575 -0.07018,-0.056 -0.151701,-0.2031 -0.181156,-0.3289 -0.11315,-0.4837 -0.146601,-0.7117 -0.100035,-0.682 0.02645,0.017 0.04808,0 0.04808,-0.029 0,-0.1081 0.3585,-0.5644 0.471689,-0.6005 0.266651,-0.085 1.371627,-0.2052 1.884742,-0.2052 0.571845,0 0.716905,0.045 0.903893,0.2835 0.06022,0.077 0.06522,0.073 0.03743,-0.026 -0.03208,-0.1145 -0.03208,-0.1145 0.03721,0 0.03811,0.063 0.119633,0.1515 0.181171,0.1968 0.144625,0.1064 0.246801,0.2178 0.451586,0.492 0.09156,0.1227 0.214135,0.2731 0.272382,0.3342 0.100709,0.1055 0.102726,0.1519 0.04107,0.946 -0.07894,1.0166 -0.07858,1.6661 0.0011,2.0081 0.03298,0.1416 0.06311,0.3991 0.06695,0.5723 0.0064,0.29 0.02552,0.3338 0.243142,0.5579 0.129892,0.1338 0.249377,0.2432 0.265523,0.2432 0.753037,0.7563 1.983813,1.624 2.356991,2.5056 0.252945,0.4735 0.533646,1.0375 0.691644,1.5147 0.06648,0.2127 0.131411,0.3762 0.144281,0.3635 0.01286,-0.012 0.03013,0.1572 0.03835,0.3775 0.0082,0.2203 0.03698,0.4431 0.0639,0.495 0.115052,0.2216 0.604035,0.8019 0.644194,0.7645 0.02414,-0.022 0.02685,-0.01 0.006,0.028 -0.02097,0.038 0.04305,0.1653 0.143615,0.286 0.572218,0.5542 0.434023,0.5612 0.884614,0.9561 0.03999,-0.026 0.04808,-0.015 0.02191,0.029 -0.02619,0.044 0.139107,0.2582 0.449238,0.5829 0.269864,0.2827 0.50831,0.5581 0.529881,0.6121 0.05103,0.1278 0.247491,1.1066 0.599819,2.9882 0.156179,0.834 0.372878,1.9284 0.481551,2.432 0.108672,0.5036 0.209689,0.973 0.224479,1.0429 0.02772,0.1311 0.104751,0.2235 0.514236,0.6166 0.131143,0.1259 0.28573,0.3319 0.343527,0.4578 0.05779,0.1259 0.157771,0.319 0.222165,0.4292 0.09458,0.1618 0.118094,0.2993 0.122369,0.7153 0.0051,0.4995 0.0015,0.5149 -0.119569,0.5082 -0.111156,-0.01 -0.124859,0.02 -0.124859,0.2392 0,0.2847 -0.194903,0.6485 -0.349478,0.6522 -0.145997,0 -0.357459,-0.258 -0.575031,-0.7113 -0.228625,-0.4763 -0.21841,-0.464 -0.315698,-0.3807 -0.10348,0.089 -0.238836,0.029 -0.282704,-0.1256 -0.01956,-0.068 -0.05067,-0.3768 -0.06915,-0.6847 -0.0272,-0.4537 -0.01401,-0.6267 0.06935,-0.9107 l 0.102942,-0.3506 -0.147895,-0.7501 c -0.08134,-0.4126 -0.299534,-1.3935 -0.48487,-2.1796 -0.185335,-0.7861 -0.391118,-1.661 -0.457291,-1.9443 -0.06617,-0.2833 -0.140494,-0.5237 -0.16516,-0.5343 -0.02466,-0.01 -0.0338,-0.037 -0.0203,-0.06 0.04829,-0.081 -0.185471,-1.0059 -0.270273,-1.0697 -0.0476,-0.036 -0.0871,-0.088 -0.08779,-0.1162 -5.78e-4,-0.028 -0.139627,-0.2055 -0.308738,-0.3943 -0.169112,-0.1889 -0.376484,-0.4206 -0.460828,-0.5151 -0.345119,-0.3863 -0.794293,-0.7721 -0.856293,-0.7356 -0.03597,0.021 -0.04732,0.018 -0.0252,-0.01 0.03744,-0.043 -0.273855,-0.3703 -0.353818,-0.3722 -0.05126,0 -0.08957,0.4221 -0.214761,2.3739 -0.14855,2.316 -0.246239,3.2858 -0.466889,4.6351 -0.108021,0.6607 -0.426819,1.8494 -0.588553,2.1947 -0.05968,0.1274 -0.115955,0.2819 -0.125058,0.3434 -0.0091,0.062 -0.04364,0.1465 -0.07675,0.189 -0.193428,0.7649 -0.548695,0.9109 -0.818442,1.6004 0.02503,0.042 0.01719,0.053 -0.02033,0.029 -0.03671,-0.023 -0.178784,0.1502 -0.355402,0.4344 -0.161838,0.2604 -0.375212,0.5894 -0.474164,0.7311 -0.09895,0.1417 -0.270669,0.3993 -0.381591,0.5724 -0.110925,0.1732 -0.360839,0.5392 -0.555363,0.8135 -0.194528,0.2742 -0.353684,0.5268 -0.353684,0.5613 0,0.034 -0.02094,0.049 -0.04654,0.033 -0.02561,-0.016 -0.09943,0.066 -0.164082,0.1827 -0.06465,0.1167 -0.205234,0.3126 -0.312415,0.4352 -0.107182,0.1226 -0.179173,0.2514 -0.159978,0.2861 0.0192,0.035 0.01474,0.044 -0.0099,0.02 -0.02463,-0.022 -0.172215,0.1338 -0.327978,0.3482 -0.440047,0.6058 -1.218889,1.5922 -1.746245,2.2117 -0.08043,0.095 -0.344617,0.4098 -0.587076,0.7009 -0.242457,0.2911 -0.460959,0.5293 -0.485559,0.5293 -0.0246,0 -0.04472,0.029 -0.04472,0.064 0,0.036 -0.05627,0.1194 -0.125035,0.1859 -0.06876,0.066 -0.196166,0.2111 -0.283103,0.3213 -0.08694,0.1101 -0.139185,0.1641 -0.116108,0.12 0.02777,-0.053 0.0203,-0.067 -0.02212,-0.039 -0.03524,0.022 -0.06407,0.072 -0.06407,0.1111 0,0.039 -0.236464,0.3269 -0.525477,0.6404 -0.289013,0.3135 -0.526244,0.6004 -0.527179,0.6375 -8.29e-4,0.038 -0.08024,0.1308 -0.176219,0.2082 l -0.174514,0.1409 0.188388,0.041 c 0.319285,0.07 0.852109,0.271 0.89507,0.3375 0.02241,0.035 0.04115,0.04 0.04162,0.013 5.77e-4,-0.027 0.03575,-0.021 0.07843,0.016 0.04267,0.037 0.124824,0.075 0.182573,0.087 0.05775,0.012 0.236784,0.1011 0.397861,0.199 0.161076,0.098 0.278101,0.1534 0.260054,0.1233 -0.04043,-0.068 0.483671,0.2266 0.530946,0.2979 0.01866,0.028 0.05056,0.047 0.07085,0.043 2.093964,0.9231 3.377822,2.0524 5.222486,3.0043 0.122084,0.063 0.234453,0.1291 0.249714,0.1486 0.01526,0.02 0.157284,0.1051 0.315609,0.1901 0.158321,0.085 0.317451,0.1913 0.353622,0.2362 0.03616,0.045 0.09711,0.081 0.135412,0.081 0.03831,0 0.100507,0.038 0.138225,0.085 0.03772,0.046 0.0881,0.072 0.111963,0.057 0.02388,-0.015 0.05832,0.013 0.07656,0.062 0.01825,0.049 0.05662,0.074 0.08527,0.056 0.06129,-0.039 0.9008,0.8235 0.862957,0.8865 -0.01416,0.024 0.0054,0.056 0.04329,0.072 0.03798,0.015 0.117754,0.1277 0.177283,0.2491 0.05953,0.1215 0.144558,0.266 0.188953,0.3211 0.0444,0.055 0.06265,0.1001 0.04059,0.1001 -0.02207,0 0.0065,0.071 0.06347,0.1574 0.283405,0.4305 0.305848,0.6998 0.07259,0.8711 -0.17946,0.1318 -0.631355,0.305 -0.959394,0.3676 -0.114453,0.021 -0.208095,0.069 -0.208095,0.1039 0,0.035 0.01644,0.047 0.03651,0.026 0.02007,-0.021 0.07144,-0.01 0.114118,0.029 0.04268,0.037 0.07324,0.043 0.0679,0.014 -0.02423,-0.1314 0.01021,-0.1512 0.08563,-0.049 0.06628,0.09 0.09178,0.096 0.131792,0.033 0.02957,-0.046 0.06318,-0.055 0.08321,-0.021 0.01849,0.031 0.142207,0.058 0.274961,0.061 0.266568,0.01 0.537703,0.093 0.537703,0.1728 0,0.1921 -0.365848,0.2418 -1.927591,0.2619 -0.670667,0.01 -1.24626,0.033 -1.279095,0.054 -0.03284,0.021 -0.07614,0.011 -0.09622,-0.022 -0.02519,-0.042 -0.06216,-0.039 -0.11905,0.01 -0.04917,0.042 -0.09764,0.049 -0.119919,0.017 -0.839669,0.069 -1.411788,-0.041 -2.273703,-0.089 z"
       style="fill:#ffffff" />
    <g
       id="g4190"
       transform="matrix(0.90714216,0,0,0.90714216,10.309518,89.771896)"
       style="stroke-width:1.10236299"
       inkscape:export-filename="images/title.png"
       inkscape:export-xdpi="108"
       inkscape:export-ydpi="108">
      <text
         xml:space="preserve"
         style="font-style:normal;font-weight:normal;line-height:0%;font-family:'Andale Mono';-inkscape-font-specification:'Andale Mono';text-align:start;letter-spacing:0px;word-spacing:0px;text-anchor:start;fill:#ffffff;fill-opacity:1;stroke:none;stroke-width:1.10236299"
         x="15.537872"
         y="977.06451"
         id="text4180"><tspan
           sodipodi:role="line"
           x="15.537872"
           y="977.06451"
           id="tspan4178"
           style="font-style:normal;font-variant:normal;font-weight:normal;font-stretch:normal;font-size:28.15907669px;line-height:100%;font-family:'Paytone One';-inkscape-font-specification:'Paytone One';text-align:start;text-anchor:start;stroke-width:1.10236299"><tspan
             style="font-style:normal;font-variant:normal;font-weight:normal;font-stretch:normal;font-size:23.46589661px;line-height:100%;font-family:'Josefin Sans';-inkscape-font-specification:'Josefin Sans';text-align:start;text-anchor:start;stroke-width:1.10236299"
             id="tspan4184">Adventure </tspan><tspan
             style="font-size:22.82543564px;stroke-width:1.10236299"
             id="tspan4192">EDITOR</tspan></tspan></text>
      <path
         style="fill:#ffffff;stroke-width:1.10236299"
         d="m 0.6506523,982.37042 c -0.207405,0 -0.382923,-0.10729 -0.528867,-0.16615 -0.274835,-0.24765 -0.112658,-0.12181 0.182563,-0.23409 -0.167882,0.0286 0.039,0.0161 0.216123,-0.0978 0.06167,0 0.18198,-0.03 0.267377,-0.0667 0.08539,-0.0367 0.183714,-0.0737 0.218492,-0.0818 0.03478,-0.008 0.191345,-0.0638 0.347932,-0.12291 0.156584,-0.0594 0.357909,-0.13508 0.447384,-0.16821 0.152807,-0.0564 0.430465,-0.19803 0.748974,-0.38178 0.137678,-0.0794 0.216701,-0.13771 0.379143,-0.27931 0.04628,-0.0403 0.102694,-0.0734 0.125367,-0.0734 0.02268,0 0.03125,-0.0103 0.01907,-0.0227 -0.0122,-0.0125 0.04881,-0.0989 0.135571,-0.1921 0.08676,-0.0931 0.15713,-0.19136 0.156384,-0.21833 -0.004,-0.14688 -0.289867,-0.34015 -1.300134,-0.87914 -0.257249,-0.1372 -0.503825,-0.27551 -0.547949,-0.30731 -0.04412,-0.0322 -0.111231,-0.0579 -0.149128,-0.0579 -0.0379,0 -0.07501,-0.0154 -0.08246,-0.033 -1.51717,-0.72676 -2.488319,-1.24222 -3.961845,-1.85487 -0.01569,0 -0.115701,-0.055 -0.222249,-0.12291 -0.276133,-0.15765 -0.424045,-0.19232 -0.669373,-0.39028 -0.02237,-0.0183 -0.11042,-0.0883 -0.195666,-0.15582 -0.34267,-0.27147 -0.468577,-0.5373 -0.422443,-0.89196 0.01313,-0.10092 0.250693,-0.64357 0.576703,-1.31727 0.304912,-0.63009 0.55179,-1.15831 0.548619,-1.1737 -0.0032,-0.0154 0.01114,-0.0396 0.03182,-0.0535 0.07178,-0.0491 0.741577,-1.4816 0.715069,-1.52938 -0.01466,-0.0264 -0.01184,-0.0337 0.0063,-0.0176 0.0329,0.0308 0.395301,-0.65501 0.398622,-0.75425 0.0011,-0.0286 0.02006,-0.052 0.04243,-0.052 0.02237,0 0.03017,-0.011 0.01733,-0.0242 -0.02941,-0.03 -0.274924,0.0982 -0.274924,0.14394 0,0.0191 -0.02559,0.0337 -0.05687,0.0337 -1.295271,0.52125 -2.751156,1.32401 -3.891756,1.85838 -0.30391,0.14285 -0.598769,0.30057 -0.655244,0.35056 -0.06058,0.0535 -0.148323,0.22405 -0.213994,0.41556 -0.06123,0.17847 -0.145533,0.3694 -0.187359,0.42429 -0.04183,0.0542 -0.06716,0.10884 -0.05631,0.11998 0.01087,0.011 -0.179879,0.42429 -0.423861,0.91791 -0.595569,1.20492 -0.629364,1.27015 -0.676341,1.30569 -0.02237,0.0169 -0.02411,0.0315 -0.0039,0.0315 0.02025,0 0.01014,0.0337 -0.02245,0.074 -0.03258,0.0403 -0.110784,0.1866 -0.17377,0.32498 -0.06299,0.13845 -0.161444,0.31625 -0.218797,0.39519 -0.05735,0.0789 -0.07808,0.12716 -0.04606,0.1073 0.0499,-0.0308 0.05019,-0.0264 0.0019,0.0352 -0.616902,1.2431 -1.3923413,2.39987 -1.9221513,3.66547 -0.159839,0.29383 -0.255209,0.57014 -0.396755,0.93462 h 0.191113 c 0.643529,0.0789 -0.103108,0.15787 -0.31728,0.18198 -0.776798,0.0864 -3.755047,0.0279 -3.855746,-0.0764 -0.102068,-0.10532 0.395681,-0.15244 1.710227,-0.16204 0.531219,-0.007 0.965895,-0.009 0.965948,-0.0117 4.3e-5,0 -0.111498,-0.0947 -0.247897,-0.20522 -0.136396,-0.11052 -0.287388,-0.2412 -0.335539,-0.29031 -0.04815,-0.0491 -0.145211,-0.12672 -0.215694,-0.17231 -0.07049,-0.0454 -0.244352,-0.18235 -0.386379,-0.30401 -0.142027,-0.12174 -0.281787,-0.24106 -0.310579,-0.26524 -0.02879,-0.0242 -0.166058,-0.1397 -0.305035,-0.2566 -0.293238,-0.2467 -0.575146,-0.5505 -0.660271,-0.71166 -0.05584,-0.10569 -0.0539,-0.11456 0.03169,-0.14432 0.146304,-0.0506 0.319182,-0.007 0.862632,0.22926 0.08875,0.0381 0.171113,0.0711 0.18302,0.0733 0.02709,0.007 0.147565,0.0528 0.306355,0.12137 0.06711,0.0286 0.213525,0.0871 0.325372,0.12863 0.111847,0.0418 0.221661,0.0884 0.24403,0.10437 0.04952,0.0352 0.27312,0.0988 0.314754,0.0895 0.01653,-0.007 0.09889,0.0205 0.183023,0.0535 0.278838,0.11001 0.738614,0.15018 1.140313,0.0997 0.355726,-0.28107 0.606613,-0.72471 0.76153,-1.08303 0.04049,-0.0462 0.05705,-0.0841 0.03681,-0.0845 -0.02025,0 -0.01645,-0.0147 0.0084,-0.0315 0.238769,-0.4764 0.4998953,-1.00535 0.7049953,-1.45683 0.253549,-0.54727 0.380839,-0.8386 0.39218,-0.89745 0.0062,-0.033 0.0354,-0.0745 0.06485,-0.0937 0.02945,-0.0198 0.03945,-0.0352 0.02221,-0.0352 -0.01723,0 0.0036,-0.0711 0.04631,-0.15794 0.0427,-0.0865 0.100876,-0.23754 0.129279,-0.33553 0.0284,-0.0981 0.064,-0.17825 0.0791,-0.17825 0.01509,0 0.02768,-0.0235 0.02796,-0.052 2.12e-4,-0.0286 0.08762,-0.27895 0.194085,-0.5557 0.21946,-0.57058 0.436286,-1.14937 0.557787,-1.489 0.0454,-0.12679 0.09808,-0.26839 0.11707,-0.3145 0.01898,-0.0462 0.07377,-0.1877 0.121727,-0.31449 0.04796,-0.12694 0.123136,-0.31567 0.167055,-0.41945 0.04392,-0.10385 0.08242,-0.20764 0.08556,-0.2308 0.0032,-0.0227 0.02071,-0.0608 0.03906,-0.0838 0.698415,-1.05365 1.932967,-1.77586 2.791482,-2.56221 0.01886,0.0117 0.142398,-0.0766 0.274532,-0.19672 0.132135,-0.12027 0.258549,-0.23299 0.280919,-0.25058 0.117432,-0.0921 0.614285,-0.50264 0.874979,-0.7231 0.163714,-0.13838 0.39071,-0.3252 0.504434,-0.41513 0.113727,-0.0899 0.215927,-0.17582 0.227112,-0.19078 0.01118,-0.0154 0.13929,-0.12056 0.284681,-0.23482 0.145391,-0.11427 0.294318,-0.23864 0.330951,-0.27646 0.309801,-0.35026 0.793544,-0.62195 1.397611,-1.1405 0.04474,-0.0432 0.122365,-0.10722 0.172502,-0.14196 0.05014,-0.0344 0.08081,-0.0804 0.06815,-0.10151 -0.01266,-0.0213 -0.0056,-0.033 0.01579,-0.0271 0.06084,0.0183 0.297735,-0.17671 0.270393,-0.22237 0.13382,-0.0696 0.257361,-0.18337 0.405129,-0.31053 0.08021,-0.0804 0.145841,-0.13567 0.145841,-0.12291 0,0.0132 0.02359,0 0.05241,-0.0322 0.06704,-0.0711 0.218056,-0.4369 0.247807,-0.6007 0.01258,-0.0689 0.0502,-0.23879 0.08361,-0.37702 0.109034,-0.45082 0.179708,-1.23951 0.204873,-2.28619 0.01359,-0.56515 0.03414,-1.12188 0.04565,-1.23724 l 0.02095,-0.20976 -0.269847,0.2936 c -0.253735,0.2761 -0.412192,0.50718 -0.394317,0.5752 0.0043,0.0161 -0.01795,0.0198 -0.04952,0.007 -0.09953,0.0249 -0.127645,0.10371 -0.181575,0.19364 -0.01342,0.011 -0.05187,0.0579 -0.08542,0.10231 -0.04812,0.0645 -0.04894,0.074 -0.0039,0.0462 0.03877,-0.0242 0.0478,-0.0198 0.02811,0.0132 -0.01596,0.0271 -0.04788,0.0484 -0.07095,0.0484 -0.05571,0 -0.278318,0.21834 -0.257698,0.25264 0.0089,0.0154 -0.0097,0.0271 -0.04129,0.0271 -0.03158,0 -0.04594,-0.0205 -0.0319,-0.0462 0.01406,-0.0249 -0.0096,-0.0147 -0.05262,0.0227 -0.04299,0.0374 -0.123761,0.0828 -0.179491,0.10034 -0.05573,0.0176 -0.211293,0.0841 -0.345707,0.14761 -0.134411,0.0638 -0.509766,0.23204 -0.834121,0.3743 -0.324355,0.14226 -0.690399,0.30321 -0.813431,0.35766 -0.123031,0.055 -0.323355,0.13933 -0.445165,0.18858 -0.12181,0.0491 -0.478702,0.20771 -0.793094,0.35239 -0.314393,0.14468 -0.648909,0.29705 -0.743369,0.33876 -0.09446,0.0418 -0.161732,0.0925 -0.149495,0.11287 0.01224,0.0205 0.0072,0.0344 -0.01126,0.0315 -0.09463,-0.0169 -0.140574,0.0176 -0.213603,0.16117 -0.113822,0.22361 -0.371341,0.48365 -0.654718,0.66117 -0.140996,0.0884 -0.232439,0.17187 -0.216803,0.19796 0.01522,0.0249 0.0081,0.033 -0.01621,0.0176 -0.02379,-0.0154 -0.141006,0 -0.260481,0.03 -0.191664,0.0513 -0.221482,0.0506 -0.253418,-0.007 -0.02248,-0.0403 -0.0185,-0.0937 0.0105,-0.1416 0.05603,-0.0926 0.04279,-0.0944 -0.132818,-0.0191 -0.15743,0.0674 -0.206593,0.0462 -0.265886,-0.11411 -0.02727,-0.0739 -0.02821,-0.1073 -0.0026,-0.091 0.0223,0.0147 0.04055,0.007 0.04055,-0.0154 0,-0.0227 -0.04118,-0.0469 -0.09151,-0.055 -0.11964,-0.0176 -0.154738,-0.22677 -0.04304,-0.2566 0.06745,-0.0183 0.06765,-0.0205 0.0024,-0.0249 -0.05119,-0.007 -0.07117,-0.0411 -0.07117,-0.13266 0,-0.10041 0.02465,-0.13874 0.11473,-0.17825 0.0631,-0.0279 0.17476,-0.12115 0.248127,-0.20756 0.07337,-0.0864 0.14723,-0.14827 0.164137,-0.13757 0.01691,0.0103 0.156908,-0.0191 0.311107,-0.0652 0.178155,-0.0542 0.37674,-0.0821 0.544729,-0.0768 0.536881,0.0161 0.587654,0.01 0.894774,-0.13728 0.16777,-0.0798 0.424001,-0.19722 0.569402,-0.26092 0.771131,-0.33765 1.039894,-0.46474 1.065923,-0.50432 0.01583,-0.0242 0.05262,-0.044 0.08174,-0.0447 0.112526,0 0.638149,-0.24524 0.613983,-0.28562 -0.01393,-0.0235 -0.0056,-0.0293 0.01856,-0.0147 0.392653,-0.1353 0.651294,-0.2648 1.01878,-0.43154 0.523185,-0.21262 0.72502,-0.3329 0.827896,-0.49319 0.05643,-0.088 0.107371,-0.17875 0.113215,-0.20184 0.0059,-0.0227 0.04307,-0.0891 0.08274,-0.1468 0.326298,-0.59645 0.639043,-1.11617 0.938602,-1.67648 0.499962,-0.90809 0.569914,-1.08164 0.648431,-1.60913 0.09527,-0.63998 0.13644,-0.8367 0.272118,-1.30041 l 0.108543,-0.37093 -0.164905,-0.15333 c -0.54047,-0.50249 -0.672823,-0.59264 -0.893676,-0.6084 -0.0482,-0.007 -0.07914,-0.0205 -0.06878,-0.0374 0.03319,-0.0557 -0.284079,-0.033 -0.494342,0.0352 -0.280104,0.0905 -0.419768,0.11199 -0.534619,0.0823 -0.107914,-0.0279 -0.366999,-0.29075 -0.40349,-0.40933 -0.01272,-0.0411 -0.04022,-0.0752 -0.06109,-0.0752 -0.02087,0 -0.03793,-0.0337 -0.03793,-0.0749 0,-0.041 -0.056,-0.10891 -0.12444,-0.15054 -0.154652,-0.0942 -0.212821,-0.2445 -0.17992,-0.46474 0.02496,-0.16703 0.156769,-0.93059 0.203036,-1.17626 0.103124,-0.54727 0.111934,-0.64922 0.06151,-0.71189 -0.02832,-0.0352 -0.06833,-0.0638 -0.0889,-0.0638 -0.02057,0 -0.05952,-0.0191 -0.08653,-0.0418 -0.02702,-0.0235 -0.09121,-0.0751 -0.14264,-0.11543 -0.05144,-0.041 -0.111185,-0.14886 -0.132773,-0.24106 -0.08293,-0.35451 -0.107447,-0.52162 -0.07332,-0.49985 0.01938,0.0125 0.03524,0 0.03524,-0.0213 0,-0.0792 0.262752,-0.41366 0.34571,-0.44012 0.195434,-0.0623 1.005291,-0.1504 1.381363,-0.1504 0.419116,0 0.525433,0.033 0.66248,0.20778 0.04414,0.0564 0.0478,0.0535 0.02743,-0.019 -0.02351,-0.0839 -0.02351,-0.0839 0.02727,0 0.02793,0.0462 0.08768,0.11104 0.132784,0.14424 0.105998,0.078 0.180885,0.15963 0.330976,0.36059 0.06711,0.0899 0.156943,0.20016 0.199634,0.24495 0.07381,0.0773 0.07529,0.11133 0.0301,0.69334 -0.05786,0.74508 -0.05759,1.22111 8.06e-4,1.47177 0.02417,0.10378 0.04625,0.29251 0.04907,0.41945 0.0047,0.21255 0.0187,0.24465 0.178203,0.4089 0.0952,0.0981 0.182773,0.17824 0.194607,0.17824 0.551915,0.55431 1.453974,1.19026 1.727483,1.8364 0.185388,0.34704 0.39112,0.76041 0.506919,1.11016 0.04873,0.15589 0.09631,0.27572 0.105746,0.26641 0.0094,-0.009 0.02208,0.11522 0.02811,0.27668 0.006,0.16146 0.0271,0.32475 0.04683,0.36279 0.08432,0.16242 0.442709,0.58773 0.472142,0.56032 0.01769,-0.0161 0.01968,-0.007 0.0044,0.0205 -0.01537,0.0278 0.03155,0.12115 0.105258,0.20962 0.419389,0.40618 0.318104,0.41131 0.64835,0.70074 0.02931,-0.0191 0.03524,-0.011 0.01606,0.0213 -0.0192,0.0322 0.101954,0.18924 0.329255,0.42722 0.197788,0.2072 0.37255,0.40904 0.388359,0.44862 0.0374,0.0937 0.181391,0.81105 0.439619,2.19011 0.114467,0.61125 0.273289,1.41336 0.352938,1.78246 0.07965,0.3691 0.153685,0.71313 0.164525,0.76436 0.02032,0.0961 0.07677,0.16381 0.376893,0.45192 0.09612,0.0923 0.209417,0.24325 0.251777,0.33553 0.04236,0.0923 0.115634,0.2338 0.162829,0.31457 0.06932,0.11858 0.08655,0.21936 0.08969,0.52425 0.0037,0.3661 0.0011,0.37738 -0.08763,0.37247 -0.08147,-0.007 -0.09151,0.0147 -0.09151,0.17532 0,0.20866 -0.142848,0.4753 -0.256139,0.47801 -0.107004,0 -0.261988,-0.1891 -0.421451,-0.52133 -0.167564,-0.34909 -0.160077,-0.34007 -0.231381,-0.27902 -0.07584,0.0652 -0.175047,0.0212 -0.207199,-0.0921 -0.01434,-0.0498 -0.03714,-0.27617 -0.05068,-0.50183 -0.01994,-0.33253 -0.01027,-0.45932 0.05083,-0.66747 l 0.07545,-0.25696 -0.108395,-0.54977 c -0.05962,-0.3024 -0.219535,-1.02132 -0.355371,-1.59747 -0.135835,-0.57614 -0.286658,-1.21738 -0.335157,-1.42501 -0.0485,-0.20764 -0.102971,-0.38383 -0.121049,-0.3916 -0.01807,-0.007 -0.02477,-0.0271 -0.01488,-0.044 0.03539,-0.0594 -0.135935,-0.73724 -0.198088,-0.784 -0.03489,-0.0264 -0.06384,-0.0645 -0.06434,-0.0852 -4.24e-4,-0.0205 -0.102336,-0.15062 -0.22628,-0.28899 -0.123946,-0.13845 -0.275932,-0.30827 -0.33775,-0.37753 -0.252944,-0.28313 -0.582152,-0.56589 -0.627593,-0.53914 -0.02636,0.0154 -0.03468,0.0132 -0.01847,-0.007 0.02744,-0.0315 -0.200713,-0.2714 -0.25932,-0.2728 -0.03757,0 -0.06565,0.30937 -0.157402,1.73988 -0.108875,1.69744 -0.180473,2.40822 -0.342192,3.39715 -0.07917,0.48424 -0.312823,1.35546 -0.431361,1.60854 -0.04374,0.0934 -0.08499,0.20661 -0.09166,0.25168 -0.0067,0.0454 -0.03198,0.10738 -0.05625,0.13852 -0.141767,0.56061 -0.402149,0.66762 -0.599852,1.17297 0.01835,0.0308 0.0126,0.0388 -0.0149,0.0213 -0.0269,-0.0168 -0.131034,0.11009 -0.260481,0.31838 -0.118614,0.19085 -0.275,0.43199 -0.347524,0.53584 -0.07252,0.10385 -0.198378,0.29265 -0.279675,0.41952 -0.0813,0.12694 -0.264466,0.39519 -0.407036,0.59623 -0.142573,0.20097 -0.259222,0.3861 -0.259222,0.41139 0,0.0249 -0.01535,0.0359 -0.03411,0.0242 -0.01877,-0.0117 -0.07287,0.0484 -0.120258,0.1339 -0.04738,0.0855 -0.15042,0.22911 -0.228975,0.31897 -0.07856,0.0898 -0.13132,0.18425 -0.117251,0.20968 0.01407,0.0257 0.0108,0.0323 -0.0073,0.0147 -0.01805,-0.0161 -0.12622,0.0981 -0.240381,0.25521 -0.322519,0.444 -0.893347,1.16695 -1.279856,1.62099 -0.05895,0.0696 -0.252577,0.30035 -0.430279,0.5137 -0.177702,0.21336 -0.337846,0.38794 -0.355876,0.38794 -0.01803,0 -0.03278,0.0213 -0.03278,0.0469 0,0.0264 -0.04124,0.0875 -0.09164,0.13625 -0.0504,0.0484 -0.143774,0.15471 -0.207492,0.23548 -0.06372,0.0807 -0.102011,0.12027 -0.0851,0.088 0.02035,-0.0388 0.01488,-0.0491 -0.01621,-0.0286 -0.02583,0.0161 -0.04696,0.0528 -0.04696,0.0814 0,0.0286 -0.173309,0.23959 -0.385132,0.46936 -0.211823,0.22977 -0.385694,0.44004 -0.386379,0.46723 -6.08e-4,0.0279 -0.05881,0.0959 -0.129155,0.1526 l -0.127904,0.10326 0.138073,0.0301 c 0.23401,0.0513 0.624527,0.19863 0.656014,0.24736 0.01642,0.0257 0.03016,0.0293 0.0305,0.01 4.23e-4,-0.0198 0.0262,-0.0154 0.05748,0.0117 0.03127,0.0271 0.09148,0.055 0.133811,0.0638 0.04233,0.009 0.173543,0.0741 0.2916,0.14585 0.118055,0.0718 0.203825,0.11243 0.190598,0.0904 -0.02963,-0.0498 0.354492,0.16608 0.38914,0.21834 0.01368,0.0205 0.03706,0.0344 0.05193,0.0315 1.534705,0.67656 2.475669,1.50425 3.827658,2.20191 0.08948,0.0462 0.171835,0.0946 0.18302,0.10891 0.01119,0.0147 0.115277,0.077 0.231316,0.13933 0.116037,0.0623 0.232666,0.14021 0.259176,0.17312 0.0265,0.033 0.07117,0.0594 0.09925,0.0594 0.02808,0 0.07366,0.0279 0.101308,0.0623 0.02765,0.0337 0.06457,0.0528 0.08206,0.0418 0.0175,-0.011 0.04274,0.01 0.05611,0.0454 0.01338,0.0359 0.0415,0.0542 0.0625,0.041 0.04492,-0.0286 0.660214,0.60356 0.632478,0.64974 -0.01038,0.0176 0.004,0.041 0.03173,0.0528 0.02784,0.011 0.0863,0.0936 0.129934,0.18257 0.04363,0.0891 0.105949,0.19495 0.138487,0.23534 0.03254,0.0403 0.04592,0.0734 0.02975,0.0734 -0.01618,0 0.0048,0.052 0.04652,0.11536 0.207712,0.31552 0.224161,0.5129 0.0532,0.63845 -0.131529,0.0966 -0.462732,0.22354 -0.703158,0.26942 -0.08388,0.0154 -0.152517,0.0506 -0.152517,0.0761 0,0.0257 0.01205,0.0344 0.02676,0.0191 0.01471,-0.0154 0.05236,-0.007 0.08364,0.0213 0.03128,0.0271 0.05368,0.0315 0.04977,0.0103 -0.01776,-0.0963 0.0075,-0.11082 0.06276,-0.0359 0.04858,0.066 0.06727,0.0704 0.09659,0.0242 0.02167,-0.0337 0.04631,-0.0403 0.06099,-0.0154 0.01355,0.0227 0.104226,0.0425 0.201524,0.0447 0.195372,0.007 0.394092,0.0682 0.394092,0.12665 0,0.14079 -0.268137,0.17722 -1.412767,0.19195 -0.491545,0.007 -0.913408,0.0242 -0.937473,0.0396 -0.02407,0.0154 -0.0558,0.008 -0.07052,-0.0161 -0.01846,-0.0308 -0.04556,-0.0286 -0.08725,0.007 -0.03604,0.0308 -0.07156,0.0359 -0.08789,0.0125 -0.615409,0.0506 -1.034726,-0.0301 -1.66644,-0.0652 z"
         id="path4182"
         inkscape:connector-curvature="0"
         sodipodi:nodetypes="ccccccscscscccccsccccccscccccscsccccccsccccccccccccccccccccccccccccccccccccccsscsccsccccsccscscccccccsccssscsccccccscsccccsccsccccsccccccccscccscsccscccccccccccsscccccccssccscsccscscsscccscscscccccsscccccscsscsccscscscccccsssccccsccccsscccccccccscccccccsssccccscccccccccscccccscscccccccsscccsccccsccssccccc" />
    </g>
  </g>
</svg>
